STARTFONT 2.3
FONT -FontForge-Source Sans Pro-Book-I-Normal-SansPro--8-80-72-72-P-34-ISO10646-1
SIZE 8 72 72  4
FONTBOUNDINGBOX 11 13 -2 -2
COMMENT "Generated by fontforge, http://fontforge.sourceforge.net"
COMMENT "Copyright 2010, 2012, 2014 Adobe Systems Incorporated (http://www.adobe.com/), with Reserved Font Name `Source'."
STARTPROPERTIES 42
FOUNDRY "FontForge"
FAMILY_NAME "Source Sans Pro"
WEIGHT_NAME "Book"
SLANT "I"
SETWIDTH_NAME "Normal"
ADD_STYLE_NAME "SansPro"
PIXEL_SIZE 8
POINT_SIZE 80
RESOLUTION_X 72
RESOLUTION_Y 72
SPACING "P"
AVERAGE_WIDTH 34
CHARSET_REGISTRY "ISO10646"
CHARSET_ENCODING "1"
FONTNAME_REGISTRY ""
CHARSET_COLLECTIONS "ISO8859-2 ISO8859-9 ISO8859-4 ISO10646-1"
BITS_PER_PIXEL 4
FONT_NAME "SourceSansPro-Italic"
FACE_NAME "Source Sans Pro Italic"
COPYRIGHT "Copyright 2010, 2012, 2014 Adobe Systems Incorporated (http://www.adobe.com/), with Reserved Font Name `Source'."
FONT_VERSION "1.076;PS 2.000;hotconv 1.0.86;makeotf.lib2.5.63406"
FONT_ASCENT 6
FONT_DESCENT 2
UNDERLINE_POSITION -1
UNDERLINE_THICKNESS 1
X_HEIGHT 3
CAP_HEIGHT 4
RAW_ASCENT 750
RAW_DESCENT 250
ITALIC_ANGLE 5056
NORM_SPACE 2
RELATIVE_WEIGHT 40
RELATIVE_SETWIDTH 50
SUPERSCRIPT_X 0
SUPERSCRIPT_Y 2
SUPERSCRIPT_SIZE 4
SUBSCRIPT_X 0
SUBSCRIPT_Y 0
SUBSCRIPT_SIZE 4
FIGURE_WIDTH 4
AVG_LOWERCASE_WIDTH 37
AVG_UPPERCASE_WIDTH 43
ENDPROPERTIES
CHARS 856
STARTCHAR space
ENCODING 32
SWIDTH 192 0
DWIDTH 2 0
BBX 1 1 0 0
BITMAP
00
ENDCHAR
STARTCHAR exclam
ENCODING 33
SWIDTH 282 0
DWIDTH 2 0
BBX 2 6 0 0
BITMAP
03
09
08
07
12
82
ENDCHAR
STARTCHAR quotedbl
ENCODING 34
SWIDTH 408 0
DWIDTH 3 0
BBX 3 2 1 3
BITMAP
9620
7700
ENDCHAR
STARTCHAR numbersign
ENCODING 35
SWIDTH 479 0
DWIDTH 4 0
BBX 4 5 0 0
BITMAP
0426
4FFD
0660
BFF6
5250
ENDCHAR
STARTCHAR dollar
ENCODING 36
SWIDTH 480 0
DWIDTH 4 0
BBX 4 7 0 -1
BITMAP
0070
0BE3
0914
0110
5182
4EC1
0700
ENDCHAR
STARTCHAR percent
ENCODING 37
SWIDTH 791 0
DWIDTH 6 0
BBX 6 6 0 0
BITMAP
1CA000
548051
7293EB
4E6958
006639
0613E5
ENDCHAR
STARTCHAR ampersand
ENCODING 38
SWIDTH 582 0
DWIDTH 5 0
BBX 5 5 0 0
BITMAP
05E600
094300
2B5140
A19810
9EA910
ENDCHAR
STARTCHAR quotesingle
ENCODING 39
SWIDTH 242 0
DWIDTH 2 0
BBX 1 2 1 3
BITMAP
90
70
ENDCHAR
STARTCHAR parenleft
ENCODING 40
SWIDTH 291 0
DWIDTH 2 0
BBX 3 7 0 -1
BITMAP
0160
0700
2600
5200
7100
6100
3400
ENDCHAR
STARTCHAR parenright
ENCODING 41
SWIDTH 293 0
DWIDTH 2 0
BBX 3 7 -1 -1
BITMAP
0060
0070
0080
0080
0170
0710
2500
ENDCHAR
STARTCHAR asterisk
ENCODING 42
SWIDTH 403 0
DWIDTH 3 0
BBX 3 3 1 3
BITMAP
4710
8A10
1200
ENDCHAR
STARTCHAR plus
ENCODING 43
SWIDTH 480 0
DWIDTH 4 0
BBX 4 5 0 0
BITMAP
0220
0340
9FFA
0340
0220
ENDCHAR
STARTCHAR comma
ENCODING 44
SWIDTH 242 0
DWIDTH 2 0
BBX 3 3 -1 -2
BITMAP
0910
1800
1100
ENDCHAR
STARTCHAR hyphen
ENCODING 45
SWIDTH 299 0
DWIDTH 2 0
BBX 3 1 0 2
BITMAP
AF10
ENDCHAR
STARTCHAR period
ENCODING 46
SWIDTH 242 0
DWIDTH 2 0
BBX 1 1 0 0
BITMAP
90
ENDCHAR
STARTCHAR slash
ENCODING 47
SWIDTH 340 0
DWIDTH 3 0
BBX 5 7 -1 -1
BITMAP
000520
000700
005200
007000
052000
070000
520000
ENDCHAR
STARTCHAR zero
ENCODING 48
SWIDTH 480 0
DWIDTH 4 0
BBX 4 5 0 0
BITMAP
08E5
4929
8108
9184
4E90
ENDCHAR
STARTCHAR one
ENCODING 49
SWIDTH 480 0
DWIDTH 4 0
BBX 3 5 0 0
BITMAP
02A0
0A90
0150
0620
BFF0
ENDCHAR
STARTCHAR two
ENCODING 50
SWIDTH 480 0
DWIDTH 4 0
BBX 5 5 -1 0
BITMAP
009E50
004270
000510
036000
1FFF20
ENDCHAR
STARTCHAR three
ENCODING 51
SWIDTH 480 0
DWIDTH 4 0
BBX 4 5 0 0
BITMAP
09E6
0348
0AD1
6184
6EB1
ENDCHAR
STARTCHAR four
ENCODING 52
SWIDTH 480 0
DWIDTH 4 0
BBX 4 5 0 0
BITMAP
0087
0683
5480
DFF8
0090
ENDCHAR
STARTCHAR five
ENCODING 53
SWIDTH 480 0
DWIDTH 4 0
BBX 4 5 0 0
BITMAP
0CFB
2FD1
1165
5183
6E90
ENDCHAR
STARTCHAR six
ENCODING 54
SWIDTH 480 0
DWIDTH 4 0
BBX 4 5 0 0
BITMAP
06E7
3FE6
7446
8365
3EB0
ENDCHAR
STARTCHAR seven
ENCODING 55
SWIDTH 480 0
DWIDTH 4 0
BBX 5 5 0 0
BITMAP
1FFF10
003600
018000
071000
090000
ENDCHAR
STARTCHAR eight
ENCODING 56
SWIDTH 480 0
DWIDTH 4 0
BBX 4 5 0 0
BITMAP
0BE7
0B99
8AC2
9146
4ED2
ENDCHAR
STARTCHAR nine
ENCODING 57
SWIDTH 480 0
DWIDTH 4 0
BBX 4 5 0 0
BITMAP
1BE4
5649
3EC8
3193
7E70
ENDCHAR
STARTCHAR colon
ENCODING 58
SWIDTH 242 0
DWIDTH 2 0
BBX 2 4 0 0
BITMAP
36
00
00
90
ENDCHAR
STARTCHAR semicolon
ENCODING 59
SWIDTH 242 0
DWIDTH 2 0
BBX 3 6 -1 -2
BITMAP
0360
0000
0000
0910
1800
1100
ENDCHAR
STARTCHAR less
ENCODING 60
SWIDTH 480 0
DWIDTH 4 0
BBX 4 3 0 1
BITMAP
0275
7910
0485
ENDCHAR
STARTCHAR equal
ENCODING 61
SWIDTH 480 0
DWIDTH 4 0
BBX 4 3 0 1
BITMAP
9FFA
0000
9FFA
ENDCHAR
STARTCHAR greater
ENCODING 62
SWIDTH 480 0
DWIDTH 4 0
BBX 4 3 0 1
BITMAP
5720
0088
4840
ENDCHAR
STARTCHAR question
ENCODING 63
SWIDTH 409 0
DWIDTH 3 0
BBX 4 6 0 0
BITMAP
0AD1
0364
0091
0720
0300
2700
ENDCHAR
STARTCHAR at
ENCODING 64
SWIDTH 814 0
DWIDTH 7 0
BBX 7 7 0 -2
BITMAP
019ED500
0ABE4A10
45926430
70864810
70BBE700
58120000
08EA0000
ENDCHAR
STARTCHAR A
ENCODING 65
SWIDTH 510 0
DWIDTH 4 0
BBX 5 5 -1 0
BITMAP
000B30
003350
01EF70
070080
270090
ENDCHAR
STARTCHAR B
ENCODING 66
SWIDTH 583 0
DWIDTH 5 0
BBX 5 5 0 0
BITMAP
0CFD20
0A0840
3FFA00
631A10
9FE900
ENDCHAR
STARTCHAR C
ENCODING 67
SWIDTH 550 0
DWIDTH 4 0
BBX 5 5 0 0
BITMAP
04DD10
2B2230
730000
761300
1CE500
ENDCHAR
STARTCHAR D
ENCODING 68
SWIDTH 592 0
DWIDTH 5 0
BBX 5 5 0 0
BITMAP
0CFB10
0A0770
360370
622B20
9FD500
ENDCHAR
STARTCHAR E
ENCODING 69
SWIDTH 503 0
DWIDTH 4 0
BBX 5 5 0 0
BITMAP
0CFF30
0A0000
3FF600
630000
9FF400
ENDCHAR
STARTCHAR F
ENCODING 70
SWIDTH 473 0
DWIDTH 4 0
BBX 5 5 0 0
BITMAP
0CFF30
090000
3FF500
640000
910000
ENDCHAR
STARTCHAR G
ENCODING 71
SWIDTH 588 0
DWIDTH 5 0
BBX 5 5 0 0
BITMAP
04DD20
2B2230
735F40
760810
1CE900
ENDCHAR
STARTCHAR H
ENCODING 72
SWIDTH 622 0
DWIDTH 5 0
BBX 5 5 0 0
BITMAP
090090
090190
3FFF60
640530
910900
ENDCHAR
STARTCHAR I
ENCODING 73
SWIDTH 252 0
DWIDTH 2 0
BBX 2 5 0 0
BITMAP
09
09
36
63
90
ENDCHAR
STARTCHAR J
ENCODING 74
SWIDTH 456 0
DWIDTH 4 0
BBX 4 5 0 0
BITMAP
0018
0055
0092
52C0
8E60
ENDCHAR
STARTCHAR K
ENCODING 75
SWIDTH 559 0
DWIDTH 4 0
BBX 5 5 0 0
BITMAP
090650
097400
3CA100
643700
900A00
ENDCHAR
STARTCHAR L
ENCODING 76
SWIDTH 462 0
DWIDTH 4 0
BBX 4 5 0 0
BITMAP
0900
0900
3600
6200
9FF2
ENDCHAR
STARTCHAR M
ENCODING 77
SWIDTH 705 0
DWIDTH 6 0
BBX 6 5 0 0
BITMAP
0B2067
0A51A4
367681
639490
904090
ENDCHAR
STARTCHAR N
ENCODING 78
SWIDTH 619 0
DWIDTH 5 0
BBX 5 5 0 0
BITMAP
0B2090
097080
368360
635A30
900D00
ENDCHAR
STARTCHAR O
ENCODING 79
SWIDTH 633 0
DWIDTH 5 0
BBX 5 5 0 0
BITMAP
05EE40
2B22A0
630090
761770
1CE900
ENDCHAR
STARTCHAR P
ENCODING 80
SWIDTH 550 0
DWIDTH 4 0
BBX 5 5 0 0
BITMAP
0CFD30
090660
3FFA10
630000
900000
ENDCHAR
STARTCHAR Q
ENCODING 81
SWIDTH 633 0
DWIDTH 5 0
BBX 5 7 0 -2
BITMAP
05ED40
2B22A0
6300A0
761770
1DF900
01B100
006E20
ENDCHAR
STARTCHAR R
ENCODING 82
SWIDTH 555 0
DWIDTH 4 0
BBX 5 5 0 0
BITMAP
0CFD30
090750
3FF700
648300
912800
ENDCHAR
STARTCHAR S
ENCODING 83
SWIDTH 506 0
DWIDTH 4 0
BBX 4 5 0 0
BITMAP
09E7
0B15
04A2
6239
3ED4
ENDCHAR
STARTCHAR T
ENCODING 84
SWIDTH 510 0
DWIDTH 4 0
BBX 5 5 0 0
BITMAP
3FFF70
009000
018000
055000
081000
ENDCHAR
STARTCHAR U
ENCODING 85
SWIDTH 616 0
DWIDTH 5 0
BBX 5 5 0 0
BITMAP
090090
180190
350550
571B20
1CE700
ENDCHAR
STARTCHAR V
ENCODING 86
SWIDTH 496 0
DWIDTH 4 0
BBX 5 5 0 0
BITMAP
450550
360900
275400
098000
0D2000
ENDCHAR
STARTCHAR W
ENCODING 87
SWIDTH 756 0
DWIDTH 6 0
BBX 7 5 0 0
BITMAP
370C0540
365A0900
36783600
39478100
3B078000
ENDCHAR
STARTCHAR X
ENCODING 88
SWIDTH 494 0
DWIDTH 4 0
BBX 6 5 -1 0
BITMAP
00A081
009630
006900
027900
190730
ENDCHAR
STARTCHAR Y
ENCODING 89
SWIDTH 461 0
DWIDTH 4 0
BBX 5 5 0 0
BITMAP
360910
095400
097000
091000
090000
ENDCHAR
STARTCHAR Z
ENCODING 90
SWIDTH 512 0
DWIDTH 4 0
BBX 5 5 0 0
BITMAP
0DFF40
003700
036000
460000
EFF700
ENDCHAR
STARTCHAR bracketleft
ENCODING 91
SWIDTH 292 0
DWIDTH 2 0
BBX 3 8 0 -2
BITMAP
0AC0
0800
0700
2500
5200
6000
6000
D700
ENDCHAR
STARTCHAR backslash
ENCODING 92
SWIDTH 340 0
DWIDTH 3 0
BBX 2 7 0 -1
BITMAP
33
25
06
06
07
07
06
ENDCHAR
STARTCHAR bracketright
ENCODING 93
SWIDTH 293 0
DWIDTH 2 0
BBX 4 8 -1 -2
BITMAP
01F4
0041
0060
0070
0070
0260
0530
5F10
ENDCHAR
STARTCHAR asciicircum
ENCODING 94
SWIDTH 479 0
DWIDTH 4 0
BBX 4 4 0 1
BITMAP
0570
0870
2634
0001
ENDCHAR
STARTCHAR underscore
ENCODING 95
SWIDTH 483 0
DWIDTH 4 0
BBX 5 1 -1 -1
BITMAP
4FFF60
ENDCHAR
STARTCHAR grave
ENCODING 96
SWIDTH 517 0
DWIDTH 4 0
BBX 2 2 2 4
BITMAP
80
62
ENDCHAR
STARTCHAR a
ENCODING 97
SWIDTH 537 0
DWIDTH 4 0
BBX 4 4 0 0
BITMAP
0AEB
661A
A168
6EB5
ENDCHAR
STARTCHAR b
ENCODING 98
SWIDTH 536 0
DWIDTH 4 0
BBX 4 6 0 0
BITMAP
0900
0900
1CEA
491A
7439
8DC2
ENDCHAR
STARTCHAR c
ENCODING 99
SWIDTH 435 0
DWIDTH 3 0
BBX 4 4 0 0
BITMAP
1AE3
7611
A220
5E90
ENDCHAR
STARTCHAR d
ENCODING 100
SWIDTH 535 0
DWIDTH 4 0
BBX 5 6 0 0
BITMAP
000450
000720
0AEB00
661A00
A16800
6EB500
ENDCHAR
STARTCHAR e
ENCODING 101
SWIDTH 481 0
DWIDTH 4 0
BBX 4 4 0 0
BITMAP
1BE5
8FF8
9220
5EA0
ENDCHAR
STARTCHAR f
ENCODING 102
SWIDTH 282 0
DWIDTH 2 0
BBX 4 6 0 0
BITMAP
06E1
0A10
6F70
1800
5400
8100
ENDCHAR
STARTCHAR g
ENCODING 103
SWIDTH 531 0
DWIDTH 4 0
BBX 4 6 0 -2
BITMAP
0AEA
761A
A168
6EC5
41A2
8E80
ENDCHAR
STARTCHAR h
ENCODING 104
SWIDTH 519 0
DWIDTH 4 0
BBX 4 6 0 0
BITMAP
0900
0900
1DE9
4919
7318
9045
ENDCHAR
STARTCHAR i
ENCODING 105
SWIDTH 237 0
DWIDTH 2 0
BBX 2 6 0 0
BITMAP
08
00
18
45
72
90
ENDCHAR
STARTCHAR j
ENCODING 106
SWIDTH 238 0
DWIDTH 2 0
BBX 3 8 -1 -2
BITMAP
0080
0000
0180
0450
0730
0A00
1B00
D600
ENDCHAR
STARTCHAR k
ENCODING 107
SWIDTH 476 0
DWIDTH 4 0
BBX 4 6 0 0
BITMAP
0900
0900
1847
4990
7790
9072
ENDCHAR
STARTCHAR l
ENCODING 108
SWIDTH 248 0
DWIDTH 2 0
BBX 2 6 0 0
BITMAP
09
09
17
44
71
84
ENDCHAR
STARTCHAR m
ENCODING 109
SWIDTH 799 0
DWIDTH 6 0
BBX 6 4 0 0
BITMAP
1BD9CC
4A1D2A
732808
906418
ENDCHAR
STARTCHAR n
ENCODING 110
SWIDTH 525 0
DWIDTH 4 0
BBX 4 4 0 0
BITMAP
1BD9
4A19
7318
9045
ENDCHAR
STARTCHAR o
ENCODING 111
SWIDTH 515 0
DWIDTH 4 0
BBX 4 4 0 0
BITMAP
1AE6
751A
9248
5EB1
ENDCHAR
STARTCHAR p
ENCODING 112
SWIDTH 535 0
DWIDTH 4 0
BBX 4 6 0 -2
BITMAP
1CEA
491A
6439
8DC2
9000
9000
ENDCHAR
STARTCHAR q
ENCODING 113
SWIDTH 537 0
DWIDTH 4 0
BBX 4 6 0 -2
BITMAP
0AEB
661A
A169
6EB6
0063
0090
ENDCHAR
STARTCHAR r
ENCODING 114
SWIDTH 342 0
DWIDTH 3 0
BBX 3 4 0 0
BITMAP
1BD0
4A10
7300
9000
ENDCHAR
STARTCHAR s
ENCODING 115
SWIDTH 402 0
DWIDTH 3 0
BBX 3 4 0 0
BITMAP
3DA0
4D70
53A0
7E50
ENDCHAR
STARTCHAR t
ENCODING 116
SWIDTH 325 0
DWIDTH 3 0
BBX 3 5 0 0
BITMAP
0800
7FB0
1700
5400
5E20
ENDCHAR
STARTCHAR u
ENCODING 117
SWIDTH 528 0
DWIDTH 4 0
BBX 4 4 0 0
BITMAP
1809
440A
7377
6EA4
ENDCHAR
STARTCHAR v
ENCODING 118
SWIDTH 448 0
DWIDTH 4 0
BBX 4 4 0 0
BITMAP
7218
5472
3770
0D10
ENDCHAR
STARTCHAR w
ENCODING 119
SWIDTH 707 0
DWIDTH 6 0
BBX 6 4 0 0
BITMAP
635727
547771
483880
3B0C20
ENDCHAR
STARTCHAR x
ENCODING 120
SWIDTH 429 0
DWIDTH 3 0
BBX 5 4 -1 0
BITMAP
027550
00A700
03A500
190900
ENDCHAR
STARTCHAR y
ENCODING 121
SWIDTH 448 0
DWIDTH 4 0
BBX 5 6 -1 -2
BITMAP
072180
044720
027800
00D200
028000
6C1000
ENDCHAR
STARTCHAR z
ENCODING 122
SWIDTH 410 0
DWIDTH 3 0
BBX 5 4 -1 0
BITMAP
02FF60
003700
045000
1FFC00
ENDCHAR
STARTCHAR braceleft
ENCODING 123
SWIDTH 290 0
DWIDTH 2 0
BBX 3 8 0 -2
BITMAP
06B0
0910
1900
A400
4400
5100
7000
7700
ENDCHAR
STARTCHAR bar
ENCODING 124
SWIDTH 231 0
DWIDTH 2 0
BBX 2 8 0 -2
BITMAP
43
43
43
43
43
43
43
43
ENDCHAR
STARTCHAR braceright
ENCODING 125
SWIDTH 293 0
DWIDTH 2 0
BBX 4 8 -1 -2
BITMAP
01E0
0060
0070
00C2
0360
0630
0910
6B00
ENDCHAR
STARTCHAR asciitilde
ENCODING 126
SWIDTH 480 0
DWIDTH 4 0
BBX 4 3 0 1
BITMAP
0003
4FF3
3000
ENDCHAR
STARTCHAR uni00A0
ENCODING 160
SWIDTH 192 0
DWIDTH 2 0
BBX 1 1 0 0
BITMAP
00
ENDCHAR
STARTCHAR exclamdown
ENCODING 161
SWIDTH 282 0
DWIDTH 2 0
BBX 2 6 0 -2
BITMAP
0A
02
34
62
90
40
ENDCHAR
STARTCHAR cent
ENCODING 162
SWIDTH 480 0
DWIDTH 4 0
BBX 4 5 0 0
BITMAP
0061
0695
3560
5771
1DD2
ENDCHAR
STARTCHAR sterling
ENCODING 163
SWIDTH 480 0
DWIDTH 4 0
BBX 4 5 0 0
BITMAP
06E8
0A14
7FF0
0600
9FF2
ENDCHAR
STARTCHAR currency
ENCODING 164
SWIDTH 480 0
DWIDTH 4 0
BBX 4 5 0 0
BITMAP
0001
2DE8
6556
8ED4
1001
ENDCHAR
STARTCHAR yen
ENCODING 165
SWIDTH 480 0
DWIDTH 4 0
BBX 4 5 0 0
BITMAP
1807
0631
8FE8
BFF5
0900
ENDCHAR
STARTCHAR brokenbar
ENCODING 166
SWIDTH 231 0
DWIDTH 2 0
BBX 2 8 0 -2
BITMAP
43
43
43
22
22
43
43
43
ENDCHAR
STARTCHAR section
ENCODING 167
SWIDTH 477 0
DWIDTH 4 0
BBX 4 7 0 -1
BITMAP
07E3
0A13
5A60
6236
06A5
41A0
6E60
ENDCHAR
STARTCHAR dieresis
ENCODING 168
SWIDTH 517 0
DWIDTH 4 0
BBX 3 1 1 5
BITMAP
4480
ENDCHAR
STARTCHAR copyright
ENCODING 169
SWIDTH 665 0
DWIDTH 5 0
BBX 6 6 0 0
BITMAP
04DE60
2A2191
62C924
573352
79F990
1BEA10
ENDCHAR
STARTCHAR ordfeminine
ENCODING 170
SWIDTH 354 0
DWIDTH 3 0
BBX 4 3 0 3
BITMAP
0B91
4680
2D40
ENDCHAR
STARTCHAR guillemotleft
ENCODING 171
SWIDTH 411 0
DWIDTH 3 0
BBX 3 3 0 1
BITMAP
1660
8530
3450
ENDCHAR
STARTCHAR logicalnot
ENCODING 172
SWIDTH 480 0
DWIDTH 4 0
BBX 4 3 0 0
BITMAP
9FFA
0007
0004
ENDCHAR
STARTCHAR uni00AD
ENCODING 173
SWIDTH 299 0
DWIDTH 2 0
BBX 3 1 0 2
BITMAP
AF10
ENDCHAR
STARTCHAR registered
ENCODING 174
SWIDTH 406 0
DWIDTH 3 0
BBX 4 4 0 2
BITMAP
0AD2
49B5
59B5
1FE0
ENDCHAR
STARTCHAR macron
ENCODING 175
SWIDTH 517 0
DWIDTH 4 0
BBX 3 1 1 4
BITMAP
4FB0
ENDCHAR
STARTCHAR degree
ENCODING 176
SWIDTH 313 0
DWIDTH 3 0
BBX 3 3 0 3
BITMAP
0C70
2570
0D50
ENDCHAR
STARTCHAR plusminus
ENCODING 177
SWIDTH 480 0
DWIDTH 4 0
BBX 4 5 0 0
BITMAP
0120
0340
9FFA
0340
9FFA
ENDCHAR
STARTCHAR two.sups
ENCODING 178
SWIDTH 353 0
DWIDTH 3 0
BBX 3 4 0 3
BITMAP
08C0
0260
0000
2DB0
ENDCHAR
STARTCHAR three.sups
ENCODING 179
SWIDTH 351 0
DWIDTH 3 0
BBX 3 4 0 3
BITMAP
08B0
0180
2980
1D90
ENDCHAR
STARTCHAR acute
ENCODING 180
SWIDTH 517 0
DWIDTH 4 0
BBX 2 2 2 4
BITMAP
18
72
ENDCHAR
STARTCHAR uni00B5
ENCODING 181
SWIDTH 526 0
DWIDTH 4 0
BBX 4 6 0 -1
BITMAP
0404
3609
6319
9376
AD73
9000
ENDCHAR
STARTCHAR paragraph
ENCODING 182
SWIDTH 535 0
DWIDTH 4 0
BBX 5 6 0 -1
BITMAP
09E910
5FD900
4FA900
045700
005400
007100
ENDCHAR
STARTCHAR periodcentered
ENCODING 183
SWIDTH 242 0
DWIDTH 2 0
BBX 2 1 0 2
BITMAP
36
ENDCHAR
STARTCHAR cedilla
ENCODING 184
SWIDTH 517 0
DWIDTH 4 0
BBX 3 2 0 -2
BITMAP
0700
5C10
ENDCHAR
STARTCHAR one.sups
ENCODING 185
SWIDTH 356 0
DWIDTH 3 0
BBX 2 4 1 2
BITMAP
68
16
43
31
ENDCHAR
STARTCHAR ordmasculine
ENCODING 186
SWIDTH 348 0
DWIDTH 3 0
BBX 3 3 0 3
BITMAP
2D90
7380
4E50
ENDCHAR
STARTCHAR guillemotright
ENCODING 187
SWIDTH 411 0
DWIDTH 3 0
BBX 3 3 0 1
BITMAP
3460
0880
5530
ENDCHAR
STARTCHAR onequarter
ENCODING 188
SWIDTH 748 0
DWIDTH 6 0
BBX 5 5 1 0
BITMAP
B30610
604200
724850
467F80
600500
ENDCHAR
STARTCHAR onehalf
ENCODING 189
SWIDTH 772 0
DWIDTH 6 0
BBX 5 5 1 0
BITMAP
B20600
605C80
743260
540000
605F70
ENDCHAR
STARTCHAR threequarters
ENCODING 190
SWIDTH 764 0
DWIDTH 6 0
BBX 6 6 0 0
BITMAP
0C8000
028042
3B5240
3E6667
0065FA
052041
ENDCHAR
STARTCHAR questiondown
ENCODING 191
SWIDTH 409 0
DWIDTH 3 0
BBX 3 6 0 -2
BITMAP
0360
0210
1900
8100
A220
9D10
ENDCHAR
STARTCHAR Agrave
ENCODING 192
SWIDTH 510 0
DWIDTH 4 0
BBX 5 7 -1 0
BITMAP
000710
000000
000B30
003350
01EF70
070080
270090
ENDCHAR
STARTCHAR Aacute
ENCODING 193
SWIDTH 510 0
DWIDTH 4 0
BBX 5 7 -1 0
BITMAP
000360
000000
000B30
003350
01EF70
070080
270090
ENDCHAR
STARTCHAR Acircumflex
ENCODING 194
SWIDTH 510 0
DWIDTH 4 0
BBX 5 7 -1 0
BITMAP
000B80
002560
000B30
003350
01EF70
070080
270090
ENDCHAR
STARTCHAR Atilde
ENCODING 195
SWIDTH 510 0
DWIDTH 4 0
BBX 6 8 -1 0
BITMAP
004D54
0063D1
000000
000B30
003350
01EF70
070080
270090
ENDCHAR
STARTCHAR Adieresis
ENCODING 196
SWIDTH 510 0
DWIDTH 4 0
BBX 5 7 -1 0
BITMAP
003580
000000
000B30
003350
01EF70
070080
270090
ENDCHAR
STARTCHAR Aring
ENCODING 197
SWIDTH 510 0
DWIDTH 4 0
BBX 5 7 -1 0
BITMAP
000A70
000B70
000B30
003350
01EF70
070080
270090
ENDCHAR
STARTCHAR AE
ENCODING 198
SWIDTH 803 0
DWIDTH 6 0
BBX 8 5 -1 0
BITMAP
0001CFF9
00089200
0063BFC0
03FFA000
1B21FFA0
ENDCHAR
STARTCHAR Ccedilla
ENCODING 199
SWIDTH 550 0
DWIDTH 4 0
BBX 5 7 0 -2
BITMAP
04DD10
2B2230
730000
761300
1CE500
025000
0C6000
ENDCHAR
STARTCHAR Egrave
ENCODING 200
SWIDTH 503 0
DWIDTH 4 0
BBX 5 7 0 0
BITMAP
007200
000000
0CFF30
0A0000
3FF600
630000
9FF400
ENDCHAR
STARTCHAR Eacute
ENCODING 201
SWIDTH 503 0
DWIDTH 4 0
BBX 5 7 0 0
BITMAP
003700
000000
0CFF30
0A0000
3FF600
630000
9FF400
ENDCHAR
STARTCHAR Ecircumflex
ENCODING 202
SWIDTH 503 0
DWIDTH 4 0
BBX 5 7 0 0
BITMAP
009900
016600
0CFF30
0A0000
3FF600
630000
9FF400
ENDCHAR
STARTCHAR Edieresis
ENCODING 203
SWIDTH 503 0
DWIDTH 4 0
BBX 5 7 0 0
BITMAP
016800
000000
0CFF30
0A0000
3FF600
630000
9FF400
ENDCHAR
STARTCHAR Igrave
ENCODING 204
SWIDTH 252 0
DWIDTH 2 0
BBX 2 7 0 0
BITMAP
07
00
09
09
36
63
90
ENDCHAR
STARTCHAR Iacute
ENCODING 205
SWIDTH 252 0
DWIDTH 2 0
BBX 3 7 0 0
BITMAP
0450
0000
0900
0900
3600
6300
9000
ENDCHAR
STARTCHAR Icircumflex
ENCODING 206
SWIDTH 252 0
DWIDTH 2 0
BBX 3 7 0 0
BITMAP
0C60
3460
0900
0900
3600
6300
9000
ENDCHAR
STARTCHAR Idieresis
ENCODING 207
SWIDTH 252 0
DWIDTH 2 0
BBX 3 7 0 0
BITMAP
4480
0000
0900
0900
3600
6300
9000
ENDCHAR
STARTCHAR Eth
ENCODING 208
SWIDTH 610 0
DWIDTH 5 0
BBX 5 5 0 0
BITMAP
0AFC20
4D6490
6B6190
442A40
7FD700
ENDCHAR
STARTCHAR Ntilde
ENCODING 209
SWIDTH 619 0
DWIDTH 5 0
BBX 5 8 0 0
BITMAP
00C670
015B50
000000
0B2090
097080
368360
635A30
900D00
ENDCHAR
STARTCHAR Ograve
ENCODING 210
SWIDTH 633 0
DWIDTH 5 0
BBX 5 7 0 0
BITMAP
004500
000000
05EE40
2B22A0
630090
761770
1CE900
ENDCHAR
STARTCHAR Oacute
ENCODING 211
SWIDTH 633 0
DWIDTH 5 0
BBX 5 7 0 0
BITMAP
000720
000000
05EE40
2B22A0
630090
761770
1CE900
ENDCHAR
STARTCHAR Ocircumflex
ENCODING 212
SWIDTH 633 0
DWIDTH 5 0
BBX 5 7 0 0
BITMAP
004E10
006330
05EE40
2B22A0
630090
761770
1CE900
ENDCHAR
STARTCHAR Otilde
ENCODING 213
SWIDTH 633 0
DWIDTH 5 0
BBX 5 8 0 0
BITMAP
00B770
016B60
000000
05EE40
2B22A0
630090
761770
1CE900
ENDCHAR
STARTCHAR Odieresis
ENCODING 214
SWIDTH 633 0
DWIDTH 5 0
BBX 5 7 0 0
BITMAP
008340
000000
05EE40
2B22A0
630090
761770
1CE900
ENDCHAR
STARTCHAR multiply
ENCODING 215
SWIDTH 480 0
DWIDTH 4 0
BBX 4 3 0 1
BITMAP
3544
0880
3653
ENDCHAR
STARTCHAR Oslash
ENCODING 216
SWIDTH 633 0
DWIDTH 5 0
BBX 6 7 0 -1
BITMAP
000001
06DEA3
3817B0
7BECB0
6C2480
ACEA10
100000
ENDCHAR
STARTCHAR Ugrave
ENCODING 217
SWIDTH 616 0
DWIDTH 5 0
BBX 5 7 0 0
BITMAP
004400
000000
090090
180190
350550
571B20
1CE700
ENDCHAR
STARTCHAR Uacute
ENCODING 218
SWIDTH 616 0
DWIDTH 5 0
BBX 5 7 0 0
BITMAP
001720
000000
090090
180190
350550
571B20
1CE700
ENDCHAR
STARTCHAR Ucircumflex
ENCODING 219
SWIDTH 616 0
DWIDTH 5 0
BBX 5 7 0 0
BITMAP
005D00
006430
090090
180190
350550
571B20
1CE700
ENDCHAR
STARTCHAR Udieresis
ENCODING 220
SWIDTH 616 0
DWIDTH 5 0
BBX 5 7 0 0
BITMAP
008430
000000
090090
180190
350550
571B20
1CE700
ENDCHAR
STARTCHAR Yacute
ENCODING 221
SWIDTH 461 0
DWIDTH 4 0
BBX 5 7 0 0
BITMAP
005400
000000
360910
095400
097000
091000
090000
ENDCHAR
STARTCHAR Thorn
ENCODING 222
SWIDTH 562 0
DWIDTH 5 0
BBX 5 5 0 0
BITMAP
0CFC10
080840
351A20
6FE700
910000
ENDCHAR
STARTCHAR germandbls
ENCODING 223
SWIDTH 555 0
DWIDTH 4 0
BBX 4 6 0 0
BITMAP
05EA
0B29
1952
4664
741A
93DA
ENDCHAR
STARTCHAR agrave
ENCODING 224
SWIDTH 537 0
DWIDTH 4 0
BBX 4 6 0 0
BITMAP
0080
0072
0AEB
661A
A168
6EB5
ENDCHAR
STARTCHAR aacute
ENCODING 225
SWIDTH 537 0
DWIDTH 4 0
BBX 4 6 0 0
BITMAP
0018
0081
0AEB
661A
A168
6EB5
ENDCHAR
STARTCHAR acircumflex
ENCODING 226
SWIDTH 537 0
DWIDTH 4 0
BBX 4 6 0 0
BITMAP
00C6
0547
0AEB
661A
A168
6EB5
ENDCHAR
STARTCHAR atilde
ENCODING 227
SWIDTH 537 0
DWIDTH 4 0
BBX 5 8 0 0
BITMAP
001000
06C620
074C00
000000
0AEB00
661A00
A16800
6EB500
ENDCHAR
STARTCHAR adieresis
ENCODING 228
SWIDTH 537 0
DWIDTH 4 0
BBX 4 6 0 0
BITMAP
0438
0000
0AEB
661A
A168
6EB5
ENDCHAR
STARTCHAR aring
ENCODING 229
SWIDTH 537 0
DWIDTH 4 0
BBX 4 6 0 0
BITMAP
00D6
00D5
0AEB
661A
A168
6EB5
ENDCHAR
STARTCHAR ae
ENCODING 230
SWIDTH 761 0
DWIDTH 6 0
BBX 6 4 0 0
BITMAP
0AE8E8
024FFC
5CF611
9E8CC1
ENDCHAR
STARTCHAR ccedilla
ENCODING 231
SWIDTH 435 0
DWIDTH 3 0
BBX 4 6 0 -2
BITMAP
1AE3
7611
A220
5E90
0700
6C00
ENDCHAR
STARTCHAR egrave
ENCODING 232
SWIDTH 481 0
DWIDTH 4 0
BBX 4 6 0 0
BITMAP
0170
0080
1BE5
8FF8
9220
5EA0
ENDCHAR
STARTCHAR eacute
ENCODING 233
SWIDTH 481 0
DWIDTH 4 0
BBX 4 6 0 0
BITMAP
0027
0081
1BE5
8FF8
9220
5EA0
ENDCHAR
STARTCHAR ecircumflex
ENCODING 234
SWIDTH 481 0
DWIDTH 4 0
BBX 4 6 0 0
BITMAP
01D4
0647
1BE5
8FF8
9220
5EA0
ENDCHAR
STARTCHAR edieresis
ENCODING 235
SWIDTH 481 0
DWIDTH 4 0
BBX 4 6 0 0
BITMAP
0628
0000
1BE5
8FF8
9220
5EA0
ENDCHAR
STARTCHAR igrave
ENCODING 236
SWIDTH 237 0
DWIDTH 2 0
BBX 2 6 0 0
BITMAP
27
08
18
45
72
90
ENDCHAR
STARTCHAR iacute
ENCODING 237
SWIDTH 237 0
DWIDTH 2 0
BBX 3 6 0 0
BITMAP
0370
0810
1800
4500
7200
9000
ENDCHAR
STARTCHAR icircumflex
ENCODING 238
SWIDTH 237 0
DWIDTH 2 0
BBX 3 6 0 0
BITMAP
1D40
6470
1800
4500
7200
9000
ENDCHAR
STARTCHAR idieresis
ENCODING 239
SWIDTH 237 0
DWIDTH 2 0
BBX 3 6 0 0
BITMAP
6280
0000
1800
4500
7200
9000
ENDCHAR
STARTCHAR eth
ENCODING 240
SWIDTH 524 0
DWIDTH 4 0
BBX 5 7 0 0
BITMAP
000310
02E900
02D600
075A00
000A00
4DE600
7EB100
ENDCHAR
STARTCHAR ntilde
ENCODING 241
SWIDTH 525 0
DWIDTH 4 0
BBX 5 8 0 0
BITMAP
001010
04D540
062D00
000000
1BD900
4A1900
731800
904500
ENDCHAR
STARTCHAR ograve
ENCODING 242
SWIDTH 515 0
DWIDTH 4 0
BBX 4 6 0 0
BITMAP
0080
0062
1AE6
751A
9248
5EB1
ENDCHAR
STARTCHAR oacute
ENCODING 243
SWIDTH 515 0
DWIDTH 4 0
BBX 4 6 0 0
BITMAP
0018
0072
1AE6
751A
9248
5EB1
ENDCHAR
STARTCHAR ocircumflex
ENCODING 244
SWIDTH 515 0
DWIDTH 4 0
BBX 4 6 0 0
BITMAP
00C6
0447
1AE6
751A
9248
5EB1
ENDCHAR
STARTCHAR otilde
ENCODING 245
SWIDTH 515 0
DWIDTH 4 0
BBX 5 8 0 0
BITMAP
001000
05C620
073C00
000000
1AE600
751A00
924800
5EB100
ENDCHAR
STARTCHAR odieresis
ENCODING 246
SWIDTH 515 0
DWIDTH 4 0
BBX 4 6 0 0
BITMAP
0448
0000
1AE6
751A
9248
5EB1
ENDCHAR
STARTCHAR divide
ENCODING 247
SWIDTH 480 0
DWIDTH 4 0
BBX 4 4 0 1
BITMAP
0450
0000
9FFA
0450
ENDCHAR
STARTCHAR oslash
ENCODING 248
SWIDTH 515 0
DWIDTH 4 0
BBX 5 4 0 0
BITMAP
1BEB10
899A00
9A9A00
AEC200
ENDCHAR
STARTCHAR ugrave
ENCODING 249
SWIDTH 528 0
DWIDTH 4 0
BBX 4 6 0 0
BITMAP
0180
0071
1809
440A
7377
6EA4
ENDCHAR
STARTCHAR uacute
ENCODING 250
SWIDTH 528 0
DWIDTH 4 0
BBX 4 6 0 0
BITMAP
0028
0081
1809
440A
7377
6EA4
ENDCHAR
STARTCHAR ucircumflex
ENCODING 251
SWIDTH 528 0
DWIDTH 4 0
BBX 4 6 0 0
BITMAP
00C5
0547
1809
440A
7377
6EA4
ENDCHAR
STARTCHAR udieresis
ENCODING 252
SWIDTH 528 0
DWIDTH 4 0
BBX 4 6 0 0
BITMAP
0538
0000
1809
440A
7377
6EA4
ENDCHAR
STARTCHAR yacute
ENCODING 253
SWIDTH 448 0
DWIDTH 4 0
BBX 5 8 -1 -2
BITMAP
000640
002700
072180
044720
027800
00D200
028000
6C1000
ENDCHAR
STARTCHAR thorn
ENCODING 254
SWIDTH 535 0
DWIDTH 4 0
BBX 4 8 0 -2
BITMAP
0900
0900
1CEA
491A
7439
8DC2
9000
9000
ENDCHAR
STARTCHAR ydieresis
ENCODING 255
SWIDTH 448 0
DWIDTH 4 0
BBX 5 8 -1 -2
BITMAP
008340
000000
072180
044720
027800
00D200
028000
6C1000
ENDCHAR
STARTCHAR Amacron
ENCODING 256
SWIDTH 510 0
DWIDTH 4 0
BBX 5 7 -1 0
BITMAP
003FD0
000000
000B30
003350
01EF70
070080
270090
ENDCHAR
STARTCHAR amacron
ENCODING 257
SWIDTH 537 0
DWIDTH 4 0
BBX 4 5 0 0
BITMAP
05FB
0AEB
661A
A168
6EB5
ENDCHAR
STARTCHAR Abreve
ENCODING 258
SWIDTH 510 0
DWIDTH 4 0
BBX 5 7 -1 0
BITMAP
002450
000C70
000B30
003350
01EF70
070080
270090
ENDCHAR
STARTCHAR abreve
ENCODING 259
SWIDTH 537 0
DWIDTH 4 0
BBX 4 6 0 0
BITMAP
0526
02D6
0AEB
661A
A168
6EB5
ENDCHAR
STARTCHAR Aogonek
ENCODING 260
SWIDTH 510 0
DWIDTH 4 0
BBX 5 7 -1 -2
BITMAP
000B30
006650
018270
09FF80
2A00A0
000330
000780
ENDCHAR
STARTCHAR aogonek
ENCODING 261
SWIDTH 537 0
DWIDTH 4 0
BBX 4 6 0 -2
BITMAP
0AEB
661A
A168
6EB5
0060
01D0
ENDCHAR
STARTCHAR Cacute
ENCODING 262
SWIDTH 550 0
DWIDTH 4 0
BBX 5 7 0 0
BITMAP
000630
000000
04DD10
2B2230
730000
761300
1CE500
ENDCHAR
STARTCHAR cacute
ENCODING 263
SWIDTH 435 0
DWIDTH 3 0
BBX 4 6 0 0
BITMAP
0027
0081
1AE3
7611
A220
5E90
ENDCHAR
STARTCHAR Ccircumflex
ENCODING 264
SWIDTH 550 0
DWIDTH 4 0
BBX 5 7 0 0
BITMAP
003E10
006340
04DD10
2B2230
730000
761300
1CE500
ENDCHAR
STARTCHAR ccircumflex
ENCODING 265
SWIDTH 435 0
DWIDTH 3 0
BBX 4 6 0 0
BITMAP
01D5
0647
1AE3
7611
A220
5E90
ENDCHAR
STARTCHAR Cdotaccent
ENCODING 266
SWIDTH 550 0
DWIDTH 4 0
BBX 5 7 0 0
BITMAP
000900
000000
04DD10
2B2230
730000
761300
1CE500
ENDCHAR
STARTCHAR cdotaccent
ENCODING 267
SWIDTH 435 0
DWIDTH 3 0
BBX 4 6 0 0
BITMAP
0090
0000
1AE3
7611
A220
5E90
ENDCHAR
STARTCHAR Ccaron
ENCODING 268
SWIDTH 550 0
DWIDTH 4 0
BBX 5 7 0 0
BITMAP
005340
005D10
04DD10
2B2230
730000
761300
1CE500
ENDCHAR
STARTCHAR ccaron
ENCODING 269
SWIDTH 435 0
DWIDTH 3 0
BBX 4 6 0 0
BITMAP
0547
01E3
1AE3
7611
A220
5E90
ENDCHAR
STARTCHAR Dcaron
ENCODING 270
SWIDTH 592 0
DWIDTH 5 0
BBX 5 7 0 0
BITMAP
006520
009900
0CFB10
0A0770
360370
622B20
9FD500
ENDCHAR
STARTCHAR dcaron
ENCODING 271
SWIDTH 542 0
DWIDTH 4 0
BBX 6 6 0 0
BITMAP
000483
000770
0AEB00
661A00
A16800
6EB500
ENDCHAR
STARTCHAR Dcroat
ENCODING 272
SWIDTH 610 0
DWIDTH 5 0
BBX 5 5 0 0
BITMAP
0AFC20
4D6490
6B6190
442A40
7FD700
ENDCHAR
STARTCHAR dcroat
ENCODING 273
SWIDTH 535 0
DWIDTH 4 0
BBX 5 6 0 0
BITMAP
000450
00AFB0
000810
1BEB00
945900
7EC600
ENDCHAR
STARTCHAR Emacron
ENCODING 274
SWIDTH 503 0
DWIDTH 4 0
BBX 5 7 0 0
BITMAP
02FE00
000000
0CFF30
0A0000
3FF600
630000
9FF400
ENDCHAR
STARTCHAR emacron
ENCODING 275
SWIDTH 481 0
DWIDTH 4 0
BBX 4 5 0 0
BITMAP
07F9
1BE5
8FF8
9220
5EA0
ENDCHAR
STARTCHAR Ebreve
ENCODING 276
SWIDTH 503 0
DWIDTH 4 0
BBX 5 7 0 0
BITMAP
014510
00B800
0CFF30
0A0000
3FF600
630000
9FF400
ENDCHAR
STARTCHAR ebreve
ENCODING 277
SWIDTH 481 0
DWIDTH 4 0
BBX 4 6 0 0
BITMAP
0616
03D4
1BE5
8FF8
9220
5EA0
ENDCHAR
STARTCHAR Edotaccent
ENCODING 278
SWIDTH 503 0
DWIDTH 4 0
BBX 5 7 0 0
BITMAP
006400
000000
0CFF30
0A0000
3FF600
630000
9FF400
ENDCHAR
STARTCHAR edotaccent
ENCODING 279
SWIDTH 481 0
DWIDTH 4 0
BBX 4 6 0 0
BITMAP
0090
0000
1BE5
8FF8
9220
5EA0
ENDCHAR
STARTCHAR Eogonek
ENCODING 280
SWIDTH 503 0
DWIDTH 4 0
BBX 5 7 0 -2
BITMAP
0CFF30
0A0000
3FF600
630000
9FF400
006000
01D000
ENDCHAR
STARTCHAR eogonek
ENCODING 281
SWIDTH 481 0
DWIDTH 4 0
BBX 4 6 0 -2
BITMAP
1BE5
8FF8
9220
5E90
0400
0770
ENDCHAR
STARTCHAR Ecaron
ENCODING 282
SWIDTH 503 0
DWIDTH 4 0
BBX 5 7 0 0
BITMAP
015600
00B800
0CFF30
0A0000
3FF600
630000
9FF400
ENDCHAR
STARTCHAR ecaron
ENCODING 283
SWIDTH 481 0
DWIDTH 4 0
BBX 4 6 0 0
BITMAP
0537
02E2
1BE5
8FF8
9220
5EA0
ENDCHAR
STARTCHAR Gcircumflex
ENCODING 284
SWIDTH 588 0
DWIDTH 5 0
BBX 5 7 0 0
BITMAP
003E10
006340
04DD20
2B2230
735F40
760810
1CE900
ENDCHAR
STARTCHAR gcircumflex
ENCODING 285
SWIDTH 531 0
DWIDTH 4 0
BBX 4 8 0 -2
BITMAP
00D5
0547
0AEA
761A
A168
6EC5
41A2
8E80
ENDCHAR
STARTCHAR Gbreve
ENCODING 286
SWIDTH 588 0
DWIDTH 5 0
BBX 5 7 0 0
BITMAP
005240
006D10
04DD20
2B2230
735F40
760810
1CE900
ENDCHAR
STARTCHAR gbreve
ENCODING 287
SWIDTH 531 0
DWIDTH 4 0
BBX 4 8 0 -2
BITMAP
0516
02D5
0AEA
761A
A168
6EC5
41A2
8E80
ENDCHAR
STARTCHAR Gdotaccent
ENCODING 288
SWIDTH 588 0
DWIDTH 5 0
BBX 5 7 0 0
BITMAP
000900
000000
04DD20
2B2230
735F40
760810
1CE900
ENDCHAR
STARTCHAR gdotaccent
ENCODING 289
SWIDTH 531 0
DWIDTH 4 0
BBX 4 8 0 -2
BITMAP
0090
0000
0AEA
761A
A168
6EC5
41A2
8E80
ENDCHAR
STARTCHAR uni0122
ENCODING 290
SWIDTH 588 0
DWIDTH 5 0
BBX 5 7 0 -2
BITMAP
04DD20
2B2230
735F40
760810
1CE900
01A000
097000
ENDCHAR
STARTCHAR uni0123
ENCODING 291
SWIDTH 531 0
DWIDTH 4 0
BBX 4 8 0 -2
BITMAP
0098
00B0
0AEA
761A
A168
6EC5
41A2
8E80
ENDCHAR
STARTCHAR Hcircumflex
ENCODING 292
SWIDTH 622 0
DWIDTH 5 0
BBX 5 7 0 0
BITMAP
006D00
007420
090090
090190
3FFF60
640530
910900
ENDCHAR
STARTCHAR hcircumflex
ENCODING 293
SWIDTH 519 0
DWIDTH 4 0
BBX 4 7 0 0
BITMAP
0B70
3D60
0900
1DE9
4919
7318
9045
ENDCHAR
STARTCHAR Hbar
ENCODING 294
SWIDTH 643 0
DWIDTH 5 0
BBX 6 5 0 0
BITMAP
090090
5FFFF7
0A0090
4FFF50
830610
ENDCHAR
STARTCHAR hbar
ENCODING 295
SWIDTH 519 0
DWIDTH 4 0
BBX 4 6 0 0
BITMAP
0900
5FF3
0900
3CE9
6818
9135
ENDCHAR
STARTCHAR Itilde
ENCODING 296
SWIDTH 252 0
DWIDTH 2 0
BBX 4 8 0 0
BITMAP
5C62
75C0
0000
0900
0900
3600
6300
9000
ENDCHAR
STARTCHAR itilde
ENCODING 297
SWIDTH 237 0
DWIDTH 2 0
BBX 3 8 0 0
BITMAP
0110
7B80
76A0
0000
1800
4500
7200
9000
ENDCHAR
STARTCHAR Imacron
ENCODING 298
SWIDTH 252 0
DWIDTH 2 0
BBX 3 7 0 0
BITMAP
5FB0
0000
0900
0900
3600
6300
9000
ENDCHAR
STARTCHAR imacron
ENCODING 299
SWIDTH 237 0
DWIDTH 2 0
BBX 3 5 0 0
BITMAP
7F90
1800
4500
7200
9000
ENDCHAR
STARTCHAR uni012C
ENCODING 300
SWIDTH 252 0
DWIDTH 2 0
BBX 3 7 0 0
BITMAP
3350
1D60
0900
0900
3600
6300
9000
ENDCHAR
STARTCHAR uni012D
ENCODING 301
SWIDTH 237 0
DWIDTH 2 0
BBX 3 6 0 0
BITMAP
6160
3D40
1800
4500
7200
9000
ENDCHAR
STARTCHAR Iogonek
ENCODING 302
SWIDTH 252 0
DWIDTH 2 0
BBX 3 7 -1 -2
BITMAP
0090
0090
0360
0630
0900
1500
3B00
ENDCHAR
STARTCHAR iogonek
ENCODING 303
SWIDTH 237 0
DWIDTH 2 0
BBX 3 8 -1 -2
BITMAP
0060
0010
0180
0450
0720
0900
1500
4B00
ENDCHAR
STARTCHAR Idotaccent
ENCODING 304
SWIDTH 252 0
DWIDTH 2 0
BBX 3 7 0 0
BITMAP
0810
0000
0900
0900
3600
6300
9000
ENDCHAR
STARTCHAR dotlessi
ENCODING 305
SWIDTH 237 0
DWIDTH 2 0
BBX 2 4 0 0
BITMAP
18
45
72
90
ENDCHAR
STARTCHAR Jcircumflex
ENCODING 308
SWIDTH 456 0
DWIDTH 4 0
BBX 5 7 0 0
BITMAP
002E20
006340
001800
005500
009200
52C000
8E6000
ENDCHAR
STARTCHAR jcircumflex
ENCODING 309
SWIDTH 238 0
DWIDTH 2 0
BBX 4 8 -1 -2
BITMAP
01E3
0636
0180
0450
0730
0A00
1B00
D600
ENDCHAR
STARTCHAR uni0136
ENCODING 310
SWIDTH 559 0
DWIDTH 4 0
BBX 5 7 0 -2
BITMAP
090650
097400
3CA100
643700
900A00
047000
0B5000
ENDCHAR
STARTCHAR uni0137
ENCODING 311
SWIDTH 476 0
DWIDTH 4 0
BBX 4 8 0 -2
BITMAP
0900
0900
1847
4990
7790
9072
0A20
4C10
ENDCHAR
STARTCHAR kgreenlandic
ENCODING 312
SWIDTH 476 0
DWIDTH 4 0
BBX 4 4 0 0
BITMAP
1847
4990
7890
9072
ENDCHAR
STARTCHAR Lacute
ENCODING 313
SWIDTH 462 0
DWIDTH 4 0
BBX 4 7 0 0
BITMAP
0460
0000
0900
0900
3600
6200
9FF2
ENDCHAR
STARTCHAR lacute
ENCODING 314
SWIDTH 248 0
DWIDTH 2 0
BBX 3 7 0 0
BITMAP
0360
0900
0900
1700
4400
7100
8400
ENDCHAR
STARTCHAR uni013B
ENCODING 315
SWIDTH 462 0
DWIDTH 4 0
BBX 4 7 0 -2
BITMAP
0900
0900
3600
6200
9FF2
0920
3C10
ENDCHAR
STARTCHAR uni013C
ENCODING 316
SWIDTH 248 0
DWIDTH 2 0
BBX 3 8 -1 -2
BITMAP
0090
0090
0170
0440
0710
0840
0C00
7A00
ENDCHAR
STARTCHAR Lcaron
ENCODING 317
SWIDTH 462 0
DWIDTH 4 0
BBX 4 6 0 0
BITMAP
0006
0905
0900
3600
6200
9FF2
ENDCHAR
STARTCHAR lcaron
ENCODING 318
SWIDTH 242 0
DWIDTH 2 0
BBX 3 6 0 0
BITMAP
0960
0950
1700
4400
7100
8400
ENDCHAR
STARTCHAR Ldot
ENCODING 319
SWIDTH 462 0
DWIDTH 4 0
BBX 4 5 0 0
BITMAP
0900
0900
3645
6200
9FF2
ENDCHAR
STARTCHAR ldot
ENCODING 320
SWIDTH 331 0
DWIDTH 3 0
BBX 3 6 0 0
BITMAP
0900
0900
1700
4490
7100
8400
ENDCHAR
STARTCHAR Lslash
ENCODING 321
SWIDTH 462 0
DWIDTH 4 0
BBX 4 5 0 0
BITMAP
0A00
1950
8E70
D500
9FF2
ENDCHAR
STARTCHAR lslash
ENCODING 322
SWIDTH 252 0
DWIDTH 2 0
BBX 3 6 0 0
BITMAP
0900
0B20
5E10
9600
7200
8400
ENDCHAR
STARTCHAR Nacute
ENCODING 323
SWIDTH 619 0
DWIDTH 5 0
BBX 5 7 0 0
BITMAP
000720
000000
0B2090
097080
368360
635A30
900D00
ENDCHAR
STARTCHAR nacute
ENCODING 324
SWIDTH 525 0
DWIDTH 4 0
BBX 4 6 0 0
BITMAP
0019
0072
1BD9
4A19
7318
9045
ENDCHAR
STARTCHAR uni0145
ENCODING 325
SWIDTH 619 0
DWIDTH 5 0
BBX 5 7 0 -2
BITMAP
0B2090
097080
368360
635A30
900D00
047000
0B5000
ENDCHAR
STARTCHAR uni0146
ENCODING 326
SWIDTH 525 0
DWIDTH 4 0
BBX 4 6 0 -2
BITMAP
1BD9
4A19
7318
9045
0920
3C10
ENDCHAR
STARTCHAR Ncaron
ENCODING 327
SWIDTH 619 0
DWIDTH 5 0
BBX 5 7 0 0
BITMAP
006440
006C00
0B2090
097080
368360
635A30
900D00
ENDCHAR
STARTCHAR ncaron
ENCODING 328
SWIDTH 525 0
DWIDTH 4 0
BBX 4 6 0 0
BITMAP
0358
00D5
1BD9
4A19
7318
9045
ENDCHAR
STARTCHAR napostrophe
ENCODING 329
SWIDTH 739 0
DWIDTH 6 0
BBX 5 6 1 0
BITMAP
900000
700000
15AE50
087370
0A0540
090810
ENDCHAR
STARTCHAR Omacron
ENCODING 332
SWIDTH 633 0
DWIDTH 5 0
BBX 5 7 0 0
BITMAP
00BF50
000000
05EE40
2B22A0
630090
761770
1CE900
ENDCHAR
STARTCHAR omacron
ENCODING 333
SWIDTH 515 0
DWIDTH 4 0
BBX 4 5 0 0
BITMAP
04FB
1AE6
751A
9248
5EB1
ENDCHAR
STARTCHAR uni014E
ENCODING 334
SWIDTH 633 0
DWIDTH 5 0
BBX 5 7 0 0
BITMAP
005240
006D10
05EE40
2B22A0
630090
761770
1CE900
ENDCHAR
STARTCHAR uni014F
ENCODING 335
SWIDTH 515 0
DWIDTH 4 0
BBX 4 6 0 0
BITMAP
0426
01D6
1AE6
751A
9248
5EB1
ENDCHAR
STARTCHAR Ohungarumlaut
ENCODING 336
SWIDTH 633 0
DWIDTH 5 0
BBX 5 7 0 0
BITMAP
002570
000110
05EE40
2B22A0
630090
761770
1CE900
ENDCHAR
STARTCHAR ohungarumlaut
ENCODING 337
SWIDTH 515 0
DWIDTH 4 0
BBX 5 6 0 0
BITMAP
006220
003710
1AE600
751A00
924800
5EB100
ENDCHAR
STARTCHAR OE
ENCODING 338
SWIDTH 816 0
DWIDTH 7 0
BBX 7 5 0 0
BITMAP
05DFFFA0
2B245000
7308FD00
660A0000
1BEFFC00
ENDCHAR
STARTCHAR oe
ENCODING 339
SWIDTH 812 0
DWIDTH 7 0
BBX 7 4 0 0
BITMAP
1AE6DD10
751EFF30
924C1200
5EA7E600
ENDCHAR
STARTCHAR Racute
ENCODING 340
SWIDTH 555 0
DWIDTH 4 0
BBX 5 7 0 0
BITMAP
002700
000000
0CFD30
090750
3FF700
648300
912800
ENDCHAR
STARTCHAR racute
ENCODING 341
SWIDTH 342 0
DWIDTH 3 0
BBX 4 6 0 0
BITMAP
0072
0360
1BD0
4A10
7300
9000
ENDCHAR
STARTCHAR uni0156
ENCODING 342
SWIDTH 555 0
DWIDTH 4 0
BBX 5 7 0 -2
BITMAP
0CFD30
090750
3FF700
648300
912800
066000
0D4000
ENDCHAR
STARTCHAR uni0157
ENCODING 343
SWIDTH 342 0
DWIDTH 3 0
BBX 4 6 -1 -2
BITMAP
01BD
04A1
0730
0900
0C00
6A00
ENDCHAR
STARTCHAR Rcaron
ENCODING 344
SWIDTH 555 0
DWIDTH 4 0
BBX 5 7 0 0
BITMAP
006610
00A800
0CFD30
090750
3FF700
648300
912800
ENDCHAR
STARTCHAR rcaron
ENCODING 345
SWIDTH 342 0
DWIDTH 3 0
BBX 4 6 0 0
BITMAP
0754
07B0
1BD0
4A10
7300
9000
ENDCHAR
STARTCHAR Sacute
ENCODING 346
SWIDTH 506 0
DWIDTH 4 0
BBX 4 7 0 0
BITMAP
0036
0000
09E7
0B15
04A2
6239
3ED4
ENDCHAR
STARTCHAR sacute
ENCODING 347
SWIDTH 402 0
DWIDTH 3 0
BBX 4 6 0 0
BITMAP
0073
0270
3DA0
4D70
53A0
7E50
ENDCHAR
STARTCHAR Scircumflex
ENCODING 348
SWIDTH 506 0
DWIDTH 4 0
BBX 4 7 0 0
BITMAP
00A8
0256
09E7
0B15
04A2
6239
3ED4
ENDCHAR
STARTCHAR scircumflex
ENCODING 349
SWIDTH 402 0
DWIDTH 3 0
BBX 4 6 0 0
BITMAP
04E0
0844
3DA0
4D70
53A0
7E50
ENDCHAR
STARTCHAR uni015E
ENCODING 350
SWIDTH 506 0
DWIDTH 4 0
BBX 4 7 0 -2
BITMAP
09E7
0B15
04A2
6239
3ED4
0600
3D10
ENDCHAR
STARTCHAR uni015F
ENCODING 351
SWIDTH 402 0
DWIDTH 3 0
BBX 3 6 0 -2
BITMAP
3DA0
4D70
53A0
7E50
1600
A800
ENDCHAR
STARTCHAR Scaron
ENCODING 352
SWIDTH 506 0
DWIDTH 4 0
BBX 4 7 0 0
BITMAP
0257
00C6
09E7
0B15
04A2
6239
3ED4
ENDCHAR
STARTCHAR scaron
ENCODING 353
SWIDTH 402 0
DWIDTH 3 0
BBX 4 6 0 0
BITMAP
0754
07B0
3DA0
4D70
53A0
7E50
ENDCHAR
STARTCHAR uni0162
ENCODING 354
SWIDTH 510 0
DWIDTH 4 0
BBX 5 7 0 -2
BITMAP
3FFF70
009000
018000
055000
081000
060000
7B0000
ENDCHAR
STARTCHAR uni0163
ENCODING 355
SWIDTH 325 0
DWIDTH 3 0
BBX 3 7 0 -2
BITMAP
0800
7FB0
1700
5400
5E20
1600
A800
ENDCHAR
STARTCHAR Tcaron
ENCODING 356
SWIDTH 510 0
DWIDTH 4 0
BBX 5 7 0 0
BITMAP
034700
00D500
3FFF70
009000
018000
055000
081000
ENDCHAR
STARTCHAR tcaron
ENCODING 357
SWIDTH 325 0
DWIDTH 3 0
BBX 4 6 0 0
BITMAP
0042
0850
7FB0
1700
5400
5E20
ENDCHAR
STARTCHAR Utilde
ENCODING 360
SWIDTH 616 0
DWIDTH 5 0
BBX 5 8 0 0
BITMAP
00C670
025C50
000000
090090
180190
350550
571B20
1CE700
ENDCHAR
STARTCHAR utilde
ENCODING 361
SWIDTH 528 0
DWIDTH 4 0
BBX 5 8 0 0
BITMAP
001100
06C710
074B00
000000
180900
440A00
737700
6EA400
ENDCHAR
STARTCHAR Umacron
ENCODING 362
SWIDTH 616 0
DWIDTH 5 0
BBX 5 7 0 0
BITMAP
00CF40
000000
090090
180190
350550
571B20
1CE700
ENDCHAR
STARTCHAR umacron
ENCODING 363
SWIDTH 528 0
DWIDTH 4 0
BBX 4 5 0 0
BITMAP
05FA
1809
440A
7377
6EA4
ENDCHAR
STARTCHAR Ubreve
ENCODING 364
SWIDTH 616 0
DWIDTH 5 0
BBX 5 7 0 0
BITMAP
005230
007C10
090090
180190
350550
571B20
1CE700
ENDCHAR
STARTCHAR ubreve
ENCODING 365
SWIDTH 528 0
DWIDTH 4 0
BBX 4 6 0 0
BITMAP
0526
02D5
1809
440A
7377
6EA4
ENDCHAR
STARTCHAR Uring
ENCODING 366
SWIDTH 616 0
DWIDTH 5 0
BBX 5 7 0 0
BITMAP
004D00
005C00
090090
180190
350550
571B20
1CE700
ENDCHAR
STARTCHAR uring
ENCODING 367
SWIDTH 528 0
DWIDTH 4 0
BBX 4 6 0 0
BITMAP
00D6
01E5
1809
440A
7377
6EA4
ENDCHAR
STARTCHAR Uhungarumlaut
ENCODING 368
SWIDTH 616 0
DWIDTH 5 0
BBX 5 7 0 0
BITMAP
003570
000110
090090
180190
350550
571B20
1CE700
ENDCHAR
STARTCHAR uhungarumlaut
ENCODING 369
SWIDTH 528 0
DWIDTH 4 0
BBX 5 6 0 0
BITMAP
007220
003700
180900
440A00
737700
6EA400
ENDCHAR
STARTCHAR Uogonek
ENCODING 370
SWIDTH 616 0
DWIDTH 5 0
BBX 5 7 0 -2
BITMAP
090090
180190
350550
571B20
1DF700
052000
086000
ENDCHAR
STARTCHAR uogonek
ENCODING 371
SWIDTH 528 0
DWIDTH 4 0
BBX 4 6 0 -2
BITMAP
1809
440A
7377
6EA4
0050
02D0
ENDCHAR
STARTCHAR Wcircumflex
ENCODING 372
SWIDTH 756 0
DWIDTH 6 0
BBX 7 7 0 0
BITMAP
000C7000
00346000
370C0540
365A0900
36783600
39478100
3B078000
ENDCHAR
STARTCHAR wcircumflex
ENCODING 373
SWIDTH 707 0
DWIDTH 6 0
BBX 6 6 0 0
BITMAP
002E20
007450
635727
547771
483880
3B0C20
ENDCHAR
STARTCHAR Ycircumflex
ENCODING 374
SWIDTH 461 0
DWIDTH 4 0
BBX 5 7 0 0
BITMAP
01E300
053500
360910
095400
097000
091000
090000
ENDCHAR
STARTCHAR ycircumflex
ENCODING 375
SWIDTH 448 0
DWIDTH 4 0
BBX 5 8 -1 -2
BITMAP
003E10
008440
072180
044720
027800
00D200
028000
6C1000
ENDCHAR
STARTCHAR Ydieresis
ENCODING 376
SWIDTH 461 0
DWIDTH 4 0
BBX 5 7 0 0
BITMAP
072700
000000
360910
095400
097000
091000
090000
ENDCHAR
STARTCHAR Zacute
ENCODING 377
SWIDTH 512 0
DWIDTH 4 0
BBX 5 7 0 0
BITMAP
003600
000000
0DFF40
003700
036000
460000
EFF700
ENDCHAR
STARTCHAR zacute
ENCODING 378
SWIDTH 410 0
DWIDTH 3 0
BBX 5 6 -1 0
BITMAP
000540
001800
02FF60
003700
045000
1FFC00
ENDCHAR
STARTCHAR Zdotaccent
ENCODING 379
SWIDTH 512 0
DWIDTH 4 0
BBX 5 7 0 0
BITMAP
007200
000000
0DFF40
003700
036000
460000
EFF700
ENDCHAR
STARTCHAR zdotaccent
ENCODING 380
SWIDTH 410 0
DWIDTH 3 0
BBX 5 6 -1 0
BITMAP
000900
000000
02FF60
003700
045000
1FFC00
ENDCHAR
STARTCHAR Zcaron
ENCODING 381
SWIDTH 512 0
DWIDTH 4 0
BBX 5 7 0 0
BITMAP
025700
00C600
0DFF40
003700
036000
460000
EFF700
ENDCHAR
STARTCHAR zcaron
ENCODING 382
SWIDTH 410 0
DWIDTH 3 0
BBX 5 6 -1 0
BITMAP
007450
005D00
02FF60
003700
045000
1FFC00
ENDCHAR
STARTCHAR uni0180
ENCODING 384
SWIDTH 519 0
DWIDTH 4 0
BBX 4 6 0 0
BITMAP
5FF3
0900
2CEA
481B
7339
8DC2
ENDCHAR
STARTCHAR uni018F
ENCODING 399
SWIDTH 636 0
DWIDTH 5 0
BBX 5 5 0 0
BITMAP
01CE50
0321A0
7FFFC0
640570
1CE900
ENDCHAR
STARTCHAR uni0192
ENCODING 402
SWIDTH 480 0
DWIDTH 4 0
BBX 5 7 -1 -1
BITMAP
0006D0
000A10
00DF60
006300
00A000
039000
4E3000
ENDCHAR
STARTCHAR Ohorn
ENCODING 416
SWIDTH 633 0
DWIDTH 5 0
BBX 6 6 0 0
BITMAP
000043
05EDB1
2B2280
6300A0
761780
1CE900
ENDCHAR
STARTCHAR ohorn
ENCODING 417
SWIDTH 517 0
DWIDTH 4 0
BBX 5 5 0 0
BITMAP
000260
1AEC20
751A00
924900
5EC200
ENDCHAR
STARTCHAR Uhorn
ENCODING 431
SWIDTH 629 0
DWIDTH 5 0
BBX 6 6 0 0
BITMAP
000008
0900A2
180190
350560
571B20
1CE700
ENDCHAR
STARTCHAR uhorn
ENCODING 432
SWIDTH 543 0
DWIDTH 4 0
BBX 5 5 0 0
BITMAP
000080
180A30
440A00
737700
6EA400
ENDCHAR
STARTCHAR uni01CD
ENCODING 461
SWIDTH 510 0
DWIDTH 4 0
BBX 5 7 -1 0
BITMAP
002570
000C60
000B30
003350
01EF70
070080
270090
ENDCHAR
STARTCHAR uni01CE
ENCODING 462
SWIDTH 537 0
DWIDTH 4 0
BBX 4 6 0 0
BITMAP
0448
01E4
0AEB
661A
A168
6EB5
ENDCHAR
STARTCHAR uni01CF
ENCODING 463
SWIDTH 252 0
DWIDTH 2 0
BBX 3 7 0 0
BITMAP
3460
0E40
0900
0900
3600
6300
9000
ENDCHAR
STARTCHAR uni01D0
ENCODING 464
SWIDTH 237 0
DWIDTH 2 0
BBX 3 6 0 0
BITMAP
6370
2E20
1800
4500
7200
9000
ENDCHAR
STARTCHAR uni01D1
ENCODING 465
SWIDTH 633 0
DWIDTH 5 0
BBX 5 7 0 0
BITMAP
006340
005D00
05EE40
2B22A0
630090
761770
1CE900
ENDCHAR
STARTCHAR uni01D2
ENCODING 466
SWIDTH 515 0
DWIDTH 4 0
BBX 4 6 0 0
BITMAP
0448
00E4
1AE6
751A
9248
5EB1
ENDCHAR
STARTCHAR uni01D3
ENCODING 467
SWIDTH 616 0
DWIDTH 5 0
BBX 5 7 0 0
BITMAP
006430
007C00
090090
180190
350550
571B20
1CE700
ENDCHAR
STARTCHAR uni01D4
ENCODING 468
SWIDTH 528 0
DWIDTH 4 0
BBX 4 6 0 0
BITMAP
0548
01E3
1809
440A
7377
6EA4
ENDCHAR
STARTCHAR uni01D5
ENCODING 469
SWIDTH 616 0
DWIDTH 5 0
BBX 5 8 0 0
BITMAP
009F70
007430
000000
090090
180190
350550
571B20
1CE700
ENDCHAR
STARTCHAR uni01D6
ENCODING 470
SWIDTH 528 0
DWIDTH 4 0
BBX 4 7 0 0
BITMAP
02FE
0537
0000
1809
440A
7377
6EA4
ENDCHAR
STARTCHAR uni01D7
ENCODING 471
SWIDTH 616 0
DWIDTH 5 0
BBX 5 8 0 0
BITMAP
000420
007630
000000
090090
180190
350550
571B20
1CE700
ENDCHAR
STARTCHAR uni01D8
ENCODING 472
SWIDTH 528 0
DWIDTH 4 0
BBX 4 7 0 0
BITMAP
0014
0547
0000
1809
440A
7377
6EA4
ENDCHAR
STARTCHAR uni01D9
ENCODING 473
SWIDTH 616 0
DWIDTH 5 0
BBX 5 8 0 0
BITMAP
003330
009F40
000000
090090
180190
350550
571B20
1CE700
ENDCHAR
STARTCHAR uni01DA
ENCODING 474
SWIDTH 528 0
DWIDTH 4 0
BBX 4 7 0 0
BITMAP
0045
05DE
0000
1809
440A
7377
6EA4
ENDCHAR
STARTCHAR uni01DB
ENCODING 475
SWIDTH 616 0
DWIDTH 5 0
BBX 5 8 0 0
BITMAP
002300
007630
000000
090090
180190
350550
571B20
1CE700
ENDCHAR
STARTCHAR uni01DC
ENCODING 476
SWIDTH 528 0
DWIDTH 4 0
BBX 4 7 0 0
BITMAP
0050
0547
0000
1809
440A
7377
6EA4
ENDCHAR
STARTCHAR Gcaron
ENCODING 486
SWIDTH 588 0
DWIDTH 5 0
BBX 5 7 0 0
BITMAP
006340
005D10
04DD20
2B2230
735F40
760810
1CE900
ENDCHAR
STARTCHAR gcaron
ENCODING 487
SWIDTH 531 0
DWIDTH 4 0
BBX 4 8 0 -2
BITMAP
0547
01E3
0AEA
761A
A168
6EC5
41A2
8E80
ENDCHAR
STARTCHAR uni01EA
ENCODING 490
SWIDTH 633 0
DWIDTH 5 0
BBX 5 7 0 -2
BITMAP
05EE40
2B22A0
6300A0
761770
1CF900
042000
078000
ENDCHAR
STARTCHAR uni01EB
ENCODING 491
SWIDTH 515 0
DWIDTH 4 0
BBX 4 6 0 -2
BITMAP
1AE6
751A
9249
5EC1
0700
1D00
ENDCHAR
STARTCHAR uni0218
ENCODING 536
SWIDTH 506 0
DWIDTH 4 0
BBX 4 7 0 -2
BITMAP
09E7
0B15
04A2
6239
3ED4
0A20
3C10
ENDCHAR
STARTCHAR uni0219
ENCODING 537
SWIDTH 402 0
DWIDTH 3 0
BBX 3 6 0 -2
BITMAP
3DA0
4D70
53A0
7E50
1A00
9700
ENDCHAR
STARTCHAR uni021A
ENCODING 538
SWIDTH 510 0
DWIDTH 4 0
BBX 5 7 0 -2
BITMAP
3FFF70
009000
018000
055000
081000
0B1000
5B0000
ENDCHAR
STARTCHAR uni021B
ENCODING 539
SWIDTH 325 0
DWIDTH 3 0
BBX 3 7 0 -2
BITMAP
0800
7FB0
1700
5400
5E20
3900
A600
ENDCHAR
STARTCHAR uni0237
ENCODING 567
SWIDTH 238 0
DWIDTH 2 0
BBX 3 6 -1 -2
BITMAP
0180
0450
0730
0A00
1B00
D600
ENDCHAR
STARTCHAR uni0243
ENCODING 579
SWIDTH 610 0
DWIDTH 5 0
BBX 5 5 0 0
BITMAP
0DFF20
170920
CF8540
531B10
8FE600
ENDCHAR
STARTCHAR uni0251
ENCODING 593
SWIDTH 537 0
DWIDTH 4 0
BBX 4 4 0 0
BITMAP
0AEB
661A
A168
6EB5
ENDCHAR
STARTCHAR uni0259
ENCODING 601
SWIDTH 478 0
DWIDTH 4 0
BBX 4 4 0 0
BITMAP
0BE3
0247
BFF4
8E90
ENDCHAR
STARTCHAR uni0261
ENCODING 609
SWIDTH 531 0
DWIDTH 4 0
BBX 4 6 0 -2
BITMAP
0AEA
761A
A168
6EC5
41A2
8E80
ENDCHAR
STARTCHAR h.sups
ENCODING 688
SWIDTH 353 0
DWIDTH 3 0
BBX 3 5 0 2
BITMAP
0400
0CA0
3570
6170
2020
ENDCHAR
STARTCHAR j.sups
ENCODING 690
SWIDTH 164 0
DWIDTH 1 0
BBX 3 5 -1 2
BITMAP
0090
0340
0610
0700
5800
ENDCHAR
STARTCHAR r.sups
ENCODING 691
SWIDTH 224 0
DWIDTH 2 0
BBX 3 4 0 2
BITMAP
1830
3500
6100
1000
ENDCHAR
STARTCHAR w.sups
ENCODING 695
SWIDTH 479 0
DWIDTH 4 0
BBX 5 3 0 3
BITMAP
53A610
4B8800
3A9300
ENDCHAR
STARTCHAR y.sups
ENCODING 696
SWIDTH 307 0
DWIDTH 2 0
BBX 3 5 0 2
BITMAP
2020
4360
1A10
2600
C000
ENDCHAR
STARTCHAR uni02B9
ENCODING 697
SWIDTH 242 0
DWIDTH 2 0
BBX 1 2 1 3
BITMAP
80
70
ENDCHAR
STARTCHAR uni02BB
ENCODING 699
SWIDTH 242 0
DWIDTH 2 0
BBX 2 3 0 3
BITMAP
01
07
19
ENDCHAR
STARTCHAR uni02BC
ENCODING 700
SWIDTH 242 0
DWIDTH 2 0
BBX 1 3 1 3
BITMAP
90
70
10
ENDCHAR
STARTCHAR uni02BE
ENCODING 702
SWIDTH 151 0
DWIDTH 1 0
BBX 2 2 0 4
BITMAP
09
38
ENDCHAR
STARTCHAR uni02BF
ENCODING 703
SWIDTH 163 0
DWIDTH 1 0
BBX 2 2 0 4
BITMAP
19
27
ENDCHAR
STARTCHAR circumflex
ENCODING 710
SWIDTH 517 0
DWIDTH 4 0
BBX 3 2 1 4
BITMAP
0C60
4470
ENDCHAR
STARTCHAR caron
ENCODING 711
SWIDTH 517 0
DWIDTH 4 0
BBX 3 2 1 4
BITMAP
4480
0E40
ENDCHAR
STARTCHAR uni02C8
ENCODING 712
SWIDTH 108 0
DWIDTH 1 0
BBX 2 1 0 5
BITMAP
25
ENDCHAR
STARTCHAR uni02C9
ENCODING 713
SWIDTH 262 0
DWIDTH 2 0
BBX 3 1 0 4
BITMAP
6FA0
ENDCHAR
STARTCHAR uni02CA
ENCODING 714
SWIDTH 213 0
DWIDTH 2 0
BBX 2 2 1 4
BITMAP
46
80
ENDCHAR
STARTCHAR uni02CB
ENCODING 715
SWIDTH 213 0
DWIDTH 2 0
BBX 2 2 0 4
BITMAP
36
08
ENDCHAR
STARTCHAR uni02CC
ENCODING 716
SWIDTH 108 0
DWIDTH 1 0
BBX 2 1 -1 -2
BITMAP
61
ENDCHAR
STARTCHAR breve
ENCODING 728
SWIDTH 517 0
DWIDTH 4 0
BBX 3 2 1 4
BITMAP
4260
1D60
ENDCHAR
STARTCHAR dotaccent
ENCODING 729
SWIDTH 517 0
DWIDTH 4 0
BBX 2 1 2 5
BITMAP
81
ENDCHAR
STARTCHAR ring
ENCODING 730
SWIDTH 517 0
DWIDTH 4 0
BBX 2 2 2 4
BITMAP
C7
D6
ENDCHAR
STARTCHAR ogonek
ENCODING 731
SWIDTH 517 0
DWIDTH 4 0
BBX 2 3 0 -2
BITMAP
02
17
0D
ENDCHAR
STARTCHAR tilde
ENCODING 732
SWIDTH 517 0
DWIDTH 4 0
BBX 4 3 1 5
BITMAP
0100
5C62
73C0
ENDCHAR
STARTCHAR hungarumlaut
ENCODING 733
SWIDTH 517 0
DWIDTH 4 0
BBX 3 2 2 4
BITMAP
6220
3710
ENDCHAR
STARTCHAR l.sups
ENCODING 737
SWIDTH 165 0
DWIDTH 1 0
BBX 2 5 0 3
BITMAP
03
07
34
61
63
ENDCHAR
STARTCHAR s.sups
ENCODING 738
SWIDTH 271 0
DWIDTH 2 0
BBX 3 3 0 3
BITMAP
3E20
2010
6E10
ENDCHAR
STARTCHAR x.sups
ENCODING 739
SWIDTH 295 0
DWIDTH 2 0
BBX 3 3 0 3
BITMAP
2760
0B00
7620
ENDCHAR
STARTCHAR uni0300
ENCODING 768
SWIDTH 0 0
DWIDTH 0 0
BBX 2 2 0 4
BITMAP
81
35
ENDCHAR
STARTCHAR uni0301
ENCODING 769
SWIDTH 0 0
DWIDTH 0 0
BBX 2 2 0 4
BITMAP
09
54
ENDCHAR
STARTCHAR uni0302
ENCODING 770
SWIDTH 0 0
DWIDTH 0 0
BBX 4 2 -1 4
BITMAP
08A0
2771
ENDCHAR
STARTCHAR uni0303
ENCODING 771
SWIDTH 0 0
DWIDTH 0 0
BBX 4 3 -1 5
BITMAP
0101
1E46
43D2
ENDCHAR
STARTCHAR uni0304
ENCODING 772
SWIDTH 0 0
DWIDTH 0 0
BBX 2 1 0 4
BITMAP
FF
ENDCHAR
STARTCHAR uni0306
ENCODING 774
SWIDTH 0 0
DWIDTH 0 0
BBX 4 2 -1 4
BITMAP
1543
0BA0
ENDCHAR
STARTCHAR uni0307
ENCODING 775
SWIDTH 0 0
DWIDTH 0 0
BBX 2 1 0 5
BITMAP
54
ENDCHAR
STARTCHAR uni0308
ENCODING 776
SWIDTH 0 0
DWIDTH 0 0
BBX 4 1 -1 5
BITMAP
1771
ENDCHAR
STARTCHAR uni0309
ENCODING 777
SWIDTH 0 0
DWIDTH 0 0
BBX 2 2 0 4
BITMAP
56
27
ENDCHAR
STARTCHAR uni030A
ENCODING 778
SWIDTH 0 0
DWIDTH 0 0
BBX 2 2 0 4
BITMAP
9B
AA
ENDCHAR
STARTCHAR uni030B
ENCODING 779
SWIDTH 0 0
DWIDTH 0 0
BBX 3 2 0 4
BITMAP
4430
3530
ENDCHAR
STARTCHAR uni030C
ENCODING 780
SWIDTH 0 0
DWIDTH 0 0
BBX 4 2 -1 4
BITMAP
1772
0A80
ENDCHAR
STARTCHAR uni030F
ENCODING 783
SWIDTH 0 0
DWIDTH 0 0
BBX 3 2 -1 4
BITMAP
6450
2530
ENDCHAR
STARTCHAR uni0312
ENCODING 786
SWIDTH 0 0
DWIDTH 0 0
BBX 2 2 0 4
BITMAP
22
62
ENDCHAR
STARTCHAR uni0313
ENCODING 787
SWIDTH 0 0
DWIDTH 0 0
BBX 2 1 0 5
BITMAP
25
ENDCHAR
STARTCHAR uni031B
ENCODING 795
SWIDTH 0 0
DWIDTH 0 0
BBX 2 2 0 3
BITMAP
08
56
ENDCHAR
STARTCHAR uni0323
ENCODING 803
SWIDTH 0 0
DWIDTH 0 0
BBX 2 1 -1 -1
BITMAP
81
ENDCHAR
STARTCHAR uni0324
ENCODING 804
SWIDTH 0 0
DWIDTH 0 0
BBX 3 1 -2 -1
BITMAP
4480
ENDCHAR
STARTCHAR uni0326
ENCODING 806
SWIDTH 0 0
DWIDTH 0 0
BBX 3 2 -2 -2
BITMAP
0840
1D20
ENDCHAR
STARTCHAR uni0327
ENCODING 807
SWIDTH 0 0
DWIDTH 0 0
BBX 3 2 -2 -2
BITMAP
0510
1E30
ENDCHAR
STARTCHAR uni0328
ENCODING 808
SWIDTH 0 0
DWIDTH 0 0
BBX 2 3 -1 -2
BITMAP
11
70
A3
ENDCHAR
STARTCHAR uni032E
ENCODING 814
SWIDTH 0 0
DWIDTH 0 0
BBX 3 2 -2 -2
BITMAP
4260
1D60
ENDCHAR
STARTCHAR uni0331
ENCODING 817
SWIDTH 0 0
DWIDTH 0 0
BBX 3 1 -2 -2
BITMAP
4FC0
ENDCHAR
STARTCHAR pi
ENCODING 960
SWIDTH 558 0
DWIDTH 4 0
BBX 5 4 0 0
BITMAP
6FFF80
090800
272600
633B00
ENDCHAR
STARTCHAR a.sups
ENCODING 7491
SWIDTH 354 0
DWIDTH 3 0
BBX 4 3 0 3
BITMAP
0B91
4680
2D40
ENDCHAR
STARTCHAR b.sups
ENCODING 7495
SWIDTH 360 0
DWIDTH 3 0
BBX 3 4 0 3
BITMAP
0400
1CB0
5490
2D60
ENDCHAR
STARTCHAR d.sups
ENCODING 7496
SWIDTH 365 0
DWIDTH 3 0
BBX 4 4 0 3
BITMAP
0021
1DA0
7380
5C20
ENDCHAR
STARTCHAR e.sups
ENCODING 7497
SWIDTH 323 0
DWIDTH 3 0
BBX 3 3 0 3
BITMAP
2D70
7FB0
5E20
ENDCHAR
STARTCHAR g.sups
ENCODING 7501
SWIDTH 354 0
DWIDTH 3 0
BBX 3 4 0 2
BITMAP
1D60
7390
7E90
6E30
ENDCHAR
STARTCHAR k.sups
ENCODING 7503
SWIDTH 325 0
DWIDTH 3 0
BBX 3 4 0 3
BITMAP
0700
1650
4C10
6250
ENDCHAR
STARTCHAR m.sups
ENCODING 7504
SWIDTH 536 0
DWIDTH 4 0
BBX 5 4 0 2
BITMAP
2ACD20
458440
617610
101100
ENDCHAR
STARTCHAR o.sups
ENCODING 7506
SWIDTH 348 0
DWIDTH 3 0
BBX 3 3 0 3
BITMAP
2D90
7380
4E50
ENDCHAR
STARTCHAR p.sups
ENCODING 7510
SWIDTH 358 0
DWIDTH 3 0
BBX 3 4 0 2
BITMAP
2AB0
6490
7D60
3000
ENDCHAR
STARTCHAR t.sups
ENCODING 7511
SWIDTH 222 0
DWIDTH 2 0
BBX 3 4 0 3
BITMAP
0400
6F20
2400
4A00
ENDCHAR
STARTCHAR u.sups
ENCODING 7512
SWIDTH 355 0
DWIDTH 3 0
BBX 3 4 0 3
BITMAP
0110
3470
6370
4B20
ENDCHAR
STARTCHAR v.sups
ENCODING 7515
SWIDTH 307 0
DWIDTH 2 0
BBX 3 4 0 3
BITMAP
1020
5270
3A30
1B00
ENDCHAR
STARTCHAR c.sups
ENCODING 7580
SWIDTH 292 0
DWIDTH 2 0
BBX 3 3 0 3
BITMAP
1D60
7310
5E20
ENDCHAR
STARTCHAR f.sups
ENCODING 7584
SWIDTH 194 0
DWIDTH 2 0
BBX 3 5 0 2
BITMAP
0B50
6F00
2500
5100
1000
ENDCHAR
STARTCHAR z.sups
ENCODING 7611
SWIDTH 279 0
DWIDTH 2 0
BBX 3 3 0 3
BITMAP
3F40
0100
7F20
ENDCHAR
STARTCHAR uni1E06
ENCODING 7686
SWIDTH 583 0
DWIDTH 5 0
BBX 5 7 0 -2
BITMAP
0CFD20
0A0840
3FFA00
631A10
9FE900
000000
3FD000
ENDCHAR
STARTCHAR uni1E07
ENCODING 7687
SWIDTH 536 0
DWIDTH 4 0
BBX 4 8 0 -2
BITMAP
0900
0900
1CEA
491A
7439
8DC2
0000
5FA0
ENDCHAR
STARTCHAR uni1E0C
ENCODING 7692
SWIDTH 592 0
DWIDTH 5 0
BBX 5 6 0 -1
BITMAP
0CFB10
0A0770
360370
622B20
9FD500
063000
ENDCHAR
STARTCHAR uni1E0D
ENCODING 7693
SWIDTH 535 0
DWIDTH 4 0
BBX 5 7 0 -1
BITMAP
000450
000720
0AEB00
661A00
A16800
6EB500
090000
ENDCHAR
STARTCHAR uni1E0E
ENCODING 7694
SWIDTH 592 0
DWIDTH 5 0
BBX 5 7 0 -2
BITMAP
0CFB10
0A0770
360370
622B20
9FD500
000000
2FE000
ENDCHAR
STARTCHAR uni1E0F
ENCODING 7695
SWIDTH 535 0
DWIDTH 4 0
BBX 5 8 0 -2
BITMAP
000450
000720
0AEB00
661A00
A16800
6EB500
000000
6FA000
ENDCHAR
STARTCHAR uni1E16
ENCODING 7702
SWIDTH 503 0
DWIDTH 4 0
BBX 5 8 0 0
BITMAP
000500
02FF00
000000
0CFF30
0A0000
3FF600
630000
9FF400
ENDCHAR
STARTCHAR uni1E17
ENCODING 7703
SWIDTH 481 0
DWIDTH 4 0
BBX 4 7 0 0
BITMAP
0014
0020
07F9
1BE5
8FF8
9220
5EA0
ENDCHAR
STARTCHAR uni1E20
ENCODING 7712
SWIDTH 588 0
DWIDTH 5 0
BBX 5 7 0 0
BITMAP
00BF50
000000
04DD20
2B2230
735F40
760810
1CE900
ENDCHAR
STARTCHAR uni1E21
ENCODING 7713
SWIDTH 531 0
DWIDTH 4 0
BBX 4 7 0 -2
BITMAP
06FA
0AEA
761A
A168
6EC5
41A2
8E80
ENDCHAR
STARTCHAR uni1E24
ENCODING 7716
SWIDTH 622 0
DWIDTH 5 0
BBX 5 6 0 -1
BITMAP
090090
090190
3FFF60
640530
910900
054000
ENDCHAR
STARTCHAR uni1E25
ENCODING 7717
SWIDTH 519 0
DWIDTH 4 0
BBX 4 7 0 -1
BITMAP
0900
0900
1DE9
4919
7318
9045
0900
ENDCHAR
STARTCHAR uni1E2A
ENCODING 7722
SWIDTH 622 0
DWIDTH 5 0
BBX 5 7 0 -2
BITMAP
090090
090190
3FFF60
640530
910900
154300
0B9000
ENDCHAR
STARTCHAR uni1E2B
ENCODING 7723
SWIDTH 519 0
DWIDTH 4 0
BBX 4 8 0 -2
BITMAP
0900
0900
1DE9
4919
7318
9045
5160
3D40
ENDCHAR
STARTCHAR uni1E34
ENCODING 7732
SWIDTH 559 0
DWIDTH 4 0
BBX 5 7 0 -2
BITMAP
090650
097400
3CA100
643700
900A00
000000
0FF000
ENDCHAR
STARTCHAR uni1E35
ENCODING 7733
SWIDTH 476 0
DWIDTH 4 0
BBX 4 8 0 -2
BITMAP
0900
0900
1847
4990
7790
9072
0000
7F90
ENDCHAR
STARTCHAR uni1E36
ENCODING 7734
SWIDTH 462 0
DWIDTH 4 0
BBX 4 6 0 -1
BITMAP
0900
0900
3600
6200
9FF2
0900
ENDCHAR
STARTCHAR uni1E37
ENCODING 7735
SWIDTH 248 0
DWIDTH 2 0
BBX 2 7 0 -1
BITMAP
09
09
17
44
71
84
90
ENDCHAR
STARTCHAR uni1E38
ENCODING 7736
SWIDTH 462 0
DWIDTH 4 0
BBX 4 8 0 -1
BITMAP
4FC0
0000
0900
0900
3600
6200
9FF2
0900
ENDCHAR
STARTCHAR uni1E39
ENCODING 7737
SWIDTH 248 0
DWIDTH 2 0
BBX 3 8 0 -1
BITMAP
2FE0
0900
0900
1700
4400
7100
8400
9000
ENDCHAR
STARTCHAR uni1E3A
ENCODING 7738
SWIDTH 462 0
DWIDTH 4 0
BBX 4 7 0 -2
BITMAP
0900
0900
3600
6200
9FF2
0000
6FA0
ENDCHAR
STARTCHAR uni1E3B
ENCODING 7739
SWIDTH 248 0
DWIDTH 2 0
BBX 3 8 -1 -2
BITMAP
0090
0090
0170
0440
0710
0840
0000
AF60
ENDCHAR
STARTCHAR uni1E42
ENCODING 7746
SWIDTH 705 0
DWIDTH 6 0
BBX 6 6 0 -1
BITMAP
0B2067
0A51A4
367681
639490
904090
018000
ENDCHAR
STARTCHAR uni1E43
ENCODING 7747
SWIDTH 799 0
DWIDTH 6 0
BBX 6 5 0 -1
BITMAP
1BD9CC
4A1D2A
732808
906418
009000
ENDCHAR
STARTCHAR uni1E44
ENCODING 7748
SWIDTH 619 0
DWIDTH 5 0
BBX 5 7 0 0
BITMAP
001800
000000
0B2090
097080
368360
635A30
900D00
ENDCHAR
STARTCHAR uni1E45
ENCODING 7749
SWIDTH 525 0
DWIDTH 4 0
BBX 4 6 0 0
BITMAP
0072
0000
1BD9
4A19
7318
9045
ENDCHAR
STARTCHAR uni1E46
ENCODING 7750
SWIDTH 619 0
DWIDTH 5 0
BBX 5 6 0 -1
BITMAP
0B2090
097080
368360
635A30
900D00
054000
ENDCHAR
STARTCHAR uni1E47
ENCODING 7751
SWIDTH 525 0
DWIDTH 4 0
BBX 4 5 0 -1
BITMAP
1BD9
4A19
7318
9045
0900
ENDCHAR
STARTCHAR uni1E48
ENCODING 7752
SWIDTH 619 0
DWIDTH 5 0
BBX 5 7 0 -2
BITMAP
0B2090
097080
368360
635A30
900D00
000000
0FF000
ENDCHAR
STARTCHAR uni1E49
ENCODING 7753
SWIDTH 525 0
DWIDTH 4 0
BBX 4 6 0 -2
BITMAP
1BD9
4A19
7318
9045
0000
6FA0
ENDCHAR
STARTCHAR uni1E52
ENCODING 7762
SWIDTH 633 0
DWIDTH 5 0
BBX 5 8 0 0
BITMAP
000320
00BF50
000000
05EE40
2B22A0
630090
761770
1CE900
ENDCHAR
STARTCHAR uni1E53
ENCODING 7763
SWIDTH 515 0
DWIDTH 4 0
BBX 4 7 0 0
BITMAP
0015
0010
04FB
1AE6
751A
9248
5EB1
ENDCHAR
STARTCHAR uni1E5A
ENCODING 7770
SWIDTH 555 0
DWIDTH 4 0
BBX 5 6 0 -1
BITMAP
0CFD30
090750
3FF700
648300
912800
072000
ENDCHAR
STARTCHAR uni1E5B
ENCODING 7771
SWIDTH 342 0
DWIDTH 3 0
BBX 3 5 0 -1
BITMAP
1BD0
4A10
7300
9000
9000
ENDCHAR
STARTCHAR uni1E5C
ENCODING 7772
SWIDTH 555 0
DWIDTH 4 0
BBX 5 8 0 -1
BITMAP
01FF00
000000
0CFD30
090750
3FF700
648300
912800
072000
ENDCHAR
STARTCHAR uni1E5D
ENCODING 7773
SWIDTH 342 0
DWIDTH 3 0
BBX 4 6 0 -1
BITMAP
0DF3
1BD0
4A10
7300
9000
9000
ENDCHAR
STARTCHAR uni1E5E
ENCODING 7774
SWIDTH 555 0
DWIDTH 4 0
BBX 5 7 0 -2
BITMAP
0CFD30
090750
3FF700
648300
912800
000000
2FE000
ENDCHAR
STARTCHAR uni1E5F
ENCODING 7775
SWIDTH 342 0
DWIDTH 3 0
BBX 4 6 -1 -2
BITMAP
01BD
04A1
0730
0900
0000
9F60
ENDCHAR
STARTCHAR uni1E60
ENCODING 7776
SWIDTH 506 0
DWIDTH 4 0
BBX 4 7 0 0
BITMAP
0072
0000
09E7
0B15
04A2
6239
3ED4
ENDCHAR
STARTCHAR uni1E61
ENCODING 7777
SWIDTH 402 0
DWIDTH 3 0
BBX 3 6 0 0
BITMAP
0280
0000
3DA0
4D70
53A0
7E50
ENDCHAR
STARTCHAR uni1E62
ENCODING 7778
SWIDTH 506 0
DWIDTH 4 0
BBX 4 6 0 -1
BITMAP
09E7
0B15
04A2
6239
3ED4
0900
ENDCHAR
STARTCHAR uni1E63
ENCODING 7779
SWIDTH 402 0
DWIDTH 3 0
BBX 3 5 0 -1
BITMAP
3DA0
4D70
53A0
7E50
2700
ENDCHAR
STARTCHAR uni1E6C
ENCODING 7788
SWIDTH 510 0
DWIDTH 4 0
BBX 5 6 0 -1
BITMAP
3FFF70
009000
018000
055000
081000
090000
ENDCHAR
STARTCHAR uni1E6D
ENCODING 7789
SWIDTH 325 0
DWIDTH 3 0
BBX 3 6 0 -1
BITMAP
0800
7FB0
1700
5400
5E20
4600
ENDCHAR
STARTCHAR uni1E6E
ENCODING 7790
SWIDTH 510 0
DWIDTH 4 0
BBX 5 7 0 -2
BITMAP
3FFF70
009000
018000
055000
081000
000000
8F7000
ENDCHAR
STARTCHAR uni1E6F
ENCODING 7791
SWIDTH 325 0
DWIDTH 3 0
BBX 3 7 0 -2
BITMAP
0800
7FB0
1700
5400
5E20
0000
EF20
ENDCHAR
STARTCHAR Wgrave
ENCODING 7808
SWIDTH 756 0
DWIDTH 6 0
BBX 7 7 0 0
BITMAP
00071000
00000000
370C0540
365A0900
36783600
39478100
3B078000
ENDCHAR
STARTCHAR wgrave
ENCODING 7809
SWIDTH 707 0
DWIDTH 6 0
BBX 6 6 0 0
BITMAP
004500
000800
635727
547771
483880
3B0C20
ENDCHAR
STARTCHAR Wacute
ENCODING 7810
SWIDTH 756 0
DWIDTH 6 0
BBX 7 7 0 0
BITMAP
00046000
00000000
370C0540
365A0900
36783600
39478100
3B078000
ENDCHAR
STARTCHAR wacute
ENCODING 7811
SWIDTH 707 0
DWIDTH 6 0
BBX 6 6 0 0
BITMAP
000450
001800
635727
547771
483880
3B0C20
ENDCHAR
STARTCHAR Wdieresis
ENCODING 7812
SWIDTH 756 0
DWIDTH 6 0
BBX 7 7 0 0
BITMAP
00448000
00000000
370C0540
365A0900
36783600
39478100
3B078000
ENDCHAR
STARTCHAR wdieresis
ENCODING 7813
SWIDTH 707 0
DWIDTH 6 0
BBX 6 6 0 0
BITMAP
008260
000000
635727
547771
483880
3B0C20
ENDCHAR
STARTCHAR uni1E8E
ENCODING 7822
SWIDTH 461 0
DWIDTH 4 0
BBX 5 7 0 0
BITMAP
009000
000000
360910
095400
097000
091000
090000
ENDCHAR
STARTCHAR uni1E8F
ENCODING 7823
SWIDTH 448 0
DWIDTH 4 0
BBX 5 8 -1 -2
BITMAP
001800
000000
072180
044720
027800
00D200
028000
6C1000
ENDCHAR
STARTCHAR uni1E92
ENCODING 7826
SWIDTH 512 0
DWIDTH 4 0
BBX 5 6 0 -1
BITMAP
0DFF40
003700
036000
460000
EFF700
090000
ENDCHAR
STARTCHAR uni1E93
ENCODING 7827
SWIDTH 410 0
DWIDTH 3 0
BBX 5 5 -1 -1
BITMAP
02FF60
003700
045000
1FFC00
027000
ENDCHAR
STARTCHAR uni1E97
ENCODING 7831
SWIDTH 325 0
DWIDTH 3 0
BBX 3 7 0 0
BITMAP
2680
0000
0800
7FB0
1700
5400
5E20
ENDCHAR
STARTCHAR uni1E9E
ENCODING 7838
SWIDTH 633 0
DWIDTH 5 0
BBX 5 5 0 0
BITMAP
04DE60
0C4720
382C60
653290
91BE40
ENDCHAR
STARTCHAR uni1EA0
ENCODING 7840
SWIDTH 510 0
DWIDTH 4 0
BBX 5 6 -1 -1
BITMAP
000B30
003350
01EF70
070080
270090
009000
ENDCHAR
STARTCHAR uni1EA1
ENCODING 7841
SWIDTH 537 0
DWIDTH 4 0
BBX 4 5 0 -1
BITMAP
0AEB
661A
A168
6EB5
0900
ENDCHAR
STARTCHAR uni1EA2
ENCODING 7842
SWIDTH 510 0
DWIDTH 4 0
BBX 5 7 -1 0
BITMAP
000930
000540
000B30
003350
01EF70
070080
270090
ENDCHAR
STARTCHAR uni1EA3
ENCODING 7843
SWIDTH 537 0
DWIDTH 4 0
BBX 4 6 0 0
BITMAP
0093
0064
0AEB
661A
A168
6EB5
ENDCHAR
STARTCHAR uni1EA4
ENCODING 7844
SWIDTH 510 0
DWIDTH 4 0
BBX 6 7 -1 0
BITMAP
000A94
001440
000B30
003350
01EF70
070080
270090
ENDCHAR
STARTCHAR uni1EA5
ENCODING 7845
SWIDTH 537 0
DWIDTH 4 0
BBX 5 7 0 0
BITMAP
000010
00C840
023400
0AEB00
661A00
A16800
6EB500
ENDCHAR
STARTCHAR uni1EA6
ENCODING 7846
SWIDTH 510 0
DWIDTH 4 0
BBX 5 7 -1 0
BITMAP
004B70
001440
000B30
003350
01EF70
070080
270090
ENDCHAR
STARTCHAR uni1EA7
ENCODING 7847
SWIDTH 537 0
DWIDTH 4 0
BBX 4 7 0 0
BITMAP
0100
06C5
0234
0AEB
661A
A168
6EB5
ENDCHAR
STARTCHAR uni1EA8
ENCODING 7848
SWIDTH 510 0
DWIDTH 4 0
BBX 6 8 -1 0
BITMAP
000046
000A85
001440
000B30
003350
01EF70
070080
270090
ENDCHAR
STARTCHAR uni1EA9
ENCODING 7849
SWIDTH 537 0
DWIDTH 4 0
BBX 5 7 0 0
BITMAP
000640
00C750
023400
0AEB00
661A00
A16800
6EB500
ENDCHAR
STARTCHAR uni1EAA
ENCODING 7850
SWIDTH 510 0
DWIDTH 4 0
BBX 6 8 -1 0
BITMAP
000C53
001FF0
001440
000B30
003350
01EF70
070080
270090
ENDCHAR
STARTCHAR uni1EAB
ENCODING 7851
SWIDTH 537 0
DWIDTH 4 0
BBX 4 7 0 0
BITMAP
00C6
03FF
0234
0AEB
661A
A168
6EB5
ENDCHAR
STARTCHAR uni1EAC
ENCODING 7852
SWIDTH 510 0
DWIDTH 4 0
BBX 5 8 -1 -1
BITMAP
000B80
002560
000B30
003350
01EF70
070080
270090
009000
ENDCHAR
STARTCHAR uni1EAD
ENCODING 7853
SWIDTH 537 0
DWIDTH 4 0
BBX 4 7 0 -1
BITMAP
00C6
0547
0AEB
661A
A168
6EB5
0900
ENDCHAR
STARTCHAR uni1EAE
ENCODING 7854
SWIDTH 510 0
DWIDTH 4 0
BBX 5 8 -1 0
BITMAP
000050
002560
000C70
000B30
003350
01EF70
070080
270090
ENDCHAR
STARTCHAR uni1EAF
ENCODING 7855
SWIDTH 537 0
DWIDTH 4 0
BBX 5 7 0 0
BITMAP
000600
025620
00B800
0AEB00
661A00
A16800
6EB500
ENDCHAR
STARTCHAR uni1EB0
ENCODING 7856
SWIDTH 510 0
DWIDTH 4 0
BBX 5 8 -1 0
BITMAP
000500
002560
000C70
000B30
003350
01EF70
070080
270090
ENDCHAR
STARTCHAR uni1EB1
ENCODING 7857
SWIDTH 537 0
DWIDTH 4 0
BBX 5 7 0 0
BITMAP
005100
025620
00B800
0AEB00
661A00
A16800
6EB500
ENDCHAR
STARTCHAR uni1EB2
ENCODING 7858
SWIDTH 510 0
DWIDTH 4 0
BBX 5 8 -1 0
BITMAP
000550
0025A0
000C70
000B30
003350
01EF70
070080
270090
ENDCHAR
STARTCHAR uni1EB3
ENCODING 7859
SWIDTH 537 0
DWIDTH 4 0
BBX 5 7 0 0
BITMAP
004700
026B20
00C800
0AEB00
661A00
A16800
6EB500
ENDCHAR
STARTCHAR uni1EB4
ENCODING 7860
SWIDTH 510 0
DWIDTH 4 0
BBX 6 11 -1 0
BITMAP
000C53
0016D0
000000
002570
000D80
000000
000B30
003350
01EF70
070080
270090
ENDCHAR
STARTCHAR uni1EB5
ENCODING 7861
SWIDTH 537 0
DWIDTH 4 0
BBX 5 10 0 0
BITMAP
00A530
007C10
000000
025710
00C900
000000
0AEB00
661A00
A16800
6EB500
ENDCHAR
STARTCHAR uni1EB6
ENCODING 7862
SWIDTH 510 0
DWIDTH 4 0
BBX 5 8 -1 -1
BITMAP
002450
000C70
000B30
003350
01EF70
070080
270090
009000
ENDCHAR
STARTCHAR uni1EB7
ENCODING 7863
SWIDTH 537 0
DWIDTH 4 0
BBX 4 7 0 -1
BITMAP
0526
02D6
0AEB
661A
A168
6EB5
0900
ENDCHAR
STARTCHAR uni1EB8
ENCODING 7864
SWIDTH 503 0
DWIDTH 4 0
BBX 5 6 0 -1
BITMAP
0CFF30
0A0000
3FF600
630000
9FF400
081000
ENDCHAR
STARTCHAR uni1EB9
ENCODING 7865
SWIDTH 481 0
DWIDTH 4 0
BBX 4 5 0 -1
BITMAP
1BE5
8FF8
9220
5EA0
0900
ENDCHAR
STARTCHAR uni1EBA
ENCODING 7866
SWIDTH 503 0
DWIDTH 4 0
BBX 5 7 0 0
BITMAP
007400
004500
0CFF30
0A0000
3FF600
630000
9FF400
ENDCHAR
STARTCHAR uni1EBB
ENCODING 7867
SWIDTH 481 0
DWIDTH 4 0
BBX 4 6 0 0
BITMAP
00A2
0073
1BE5
8FF8
9220
5EA0
ENDCHAR
STARTCHAR uni1EBC
ENCODING 7868
SWIDTH 503 0
DWIDTH 4 0
BBX 5 8 0 0
BITMAP
02E450
063D10
000000
0CFF30
0A0000
3FF600
630000
9FF400
ENDCHAR
STARTCHAR uni1EBD
ENCODING 7869
SWIDTH 481 0
DWIDTH 4 0
BBX 4 8 0 0
BITMAP
0011
07B8
075A
0000
1BE5
8FF8
9220
5EA0
ENDCHAR
STARTCHAR uni1EBE
ENCODING 7870
SWIDTH 503 0
DWIDTH 4 0
BBX 5 7 0 0
BITMAP
009A50
004400
0CFF30
0A0000
3FF600
630000
9FF400
ENDCHAR
STARTCHAR uni1EBF
ENCODING 7871
SWIDTH 481 0
DWIDTH 4 0
BBX 5 7 0 0
BITMAP
000010
01D730
033400
1BE500
8FF800
922000
5EA000
ENDCHAR
STARTCHAR uni1EC0
ENCODING 7872
SWIDTH 503 0
DWIDTH 4 0
BBX 5 7 0 0
BITMAP
04A800
004400
0CFF30
0A0000
3FF600
630000
9FF400
ENDCHAR
STARTCHAR uni1EC1
ENCODING 7873
SWIDTH 481 0
DWIDTH 4 0
BBX 4 7 0 0
BITMAP
0100
07D3
0334
1BE5
8FF8
9220
5EA0
ENDCHAR
STARTCHAR uni1EC2
ENCODING 7874
SWIDTH 503 0
DWIDTH 4 0
BBX 5 8 0 0
BITMAP
000370
009960
004400
0CFF30
0A0000
3FF600
630000
9FF400
ENDCHAR
STARTCHAR uni1EC3
ENCODING 7875
SWIDTH 481 0
DWIDTH 4 0
BBX 5 7 0 0
BITMAP
000830
01D730
033400
1BE500
8FF800
922000
5EA000
ENDCHAR
STARTCHAR uni1EC4
ENCODING 7876
SWIDTH 503 0
DWIDTH 4 0
BBX 5 8 0 0
BITMAP
00B540
00FF10
004400
0CFF30
0A0000
3FF600
630000
9FF400
ENDCHAR
STARTCHAR uni1EC5
ENCODING 7877
SWIDTH 481 0
DWIDTH 4 0
BBX 4 7 0 0
BITMAP
02C6
06FC
0324
1BE5
8FF8
9220
5EA0
ENDCHAR
STARTCHAR uni1EC6
ENCODING 7878
SWIDTH 503 0
DWIDTH 4 0
BBX 5 8 0 -1
BITMAP
009900
016600
0CFF30
0A0000
3FF600
630000
9FF400
081000
ENDCHAR
STARTCHAR uni1EC7
ENCODING 7879
SWIDTH 481 0
DWIDTH 4 0
BBX 4 7 0 -1
BITMAP
01D4
0647
1BE5
8FF8
9220
5EA0
0900
ENDCHAR
STARTCHAR uni1EC8
ENCODING 7880
SWIDTH 252 0
DWIDTH 2 0
BBX 3 7 0 0
BITMAP
0A20
0630
0900
0900
3600
6300
9000
ENDCHAR
STARTCHAR uni1EC9
ENCODING 7881
SWIDTH 237 0
DWIDTH 2 0
BBX 3 6 0 0
BITMAP
0A20
0720
1800
4500
7200
9000
ENDCHAR
STARTCHAR uni1ECA
ENCODING 7882
SWIDTH 252 0
DWIDTH 2 0
BBX 2 6 0 -1
BITMAP
09
09
36
63
90
90
ENDCHAR
STARTCHAR uni1ECB
ENCODING 7883
SWIDTH 237 0
DWIDTH 2 0
BBX 2 7 0 -1
BITMAP
08
00
18
45
72
90
90
ENDCHAR
STARTCHAR uni1ECC
ENCODING 7884
SWIDTH 633 0
DWIDTH 5 0
BBX 5 6 0 -1
BITMAP
05EE40
2B22A0
630090
761770
1CE900
045000
ENDCHAR
STARTCHAR uni1ECD
ENCODING 7885
SWIDTH 515 0
DWIDTH 4 0
BBX 4 5 0 -1
BITMAP
1AE6
751A
9248
5EB1
0900
ENDCHAR
STARTCHAR uni1ECE
ENCODING 7886
SWIDTH 633 0
DWIDTH 5 0
BBX 5 7 0 0
BITMAP
002900
001800
05EE40
2B22A0
630090
761770
1CE900
ENDCHAR
STARTCHAR uni1ECF
ENCODING 7887
SWIDTH 515 0
DWIDTH 4 0
BBX 4 6 0 0
BITMAP
0093
0054
1AE6
751A
9248
5EB1
ENDCHAR
STARTCHAR uni1ED0
ENCODING 7888
SWIDTH 633 0
DWIDTH 5 0
BBX 6 7 0 0
BITMAP
003D61
004320
05EE40
2B22A0
630090
761770
1CE900
ENDCHAR
STARTCHAR uni1ED1
ENCODING 7889
SWIDTH 515 0
DWIDTH 4 0
BBX 5 7 0 0
BITMAP
000010
00C840
023400
1AE600
751A00
924800
5EB100
ENDCHAR
STARTCHAR uni1ED2
ENCODING 7890
SWIDTH 633 0
DWIDTH 5 0
BBX 5 7 0 0
BITMAP
018D00
004320
05EE40
2B22A0
630090
761770
1CE900
ENDCHAR
STARTCHAR uni1ED3
ENCODING 7891
SWIDTH 515 0
DWIDTH 4 0
BBX 4 7 0 0
BITMAP
0100
06C5
0234
1AE6
751A
9248
5EB1
ENDCHAR
STARTCHAR uni1ED4
ENCODING 7892
SWIDTH 633 0
DWIDTH 5 0
BBX 5 8 0 0
BITMAP
0000A0
003D70
004320
05EE40
2B22A0
630090
761770
1CE900
ENDCHAR
STARTCHAR uni1ED5
ENCODING 7893
SWIDTH 515 0
DWIDTH 4 0
BBX 5 7 0 0
BITMAP
000640
00C750
023400
1AE600
751A00
924800
5EB100
ENDCHAR
STARTCHAR uni1ED6
ENCODING 7894
SWIDTH 633 0
DWIDTH 5 0
BBX 5 8 0 0
BITMAP
006960
009F60
004320
05EE40
2B22A0
630090
761770
1CE900
ENDCHAR
STARTCHAR uni1ED7
ENCODING 7895
SWIDTH 515 0
DWIDTH 4 0
BBX 4 7 0 0
BITMAP
00C6
03FF
0234
1AE6
751A
9248
5EB1
ENDCHAR
STARTCHAR uni1ED8
ENCODING 7896
SWIDTH 633 0
DWIDTH 5 0
BBX 5 8 0 -1
BITMAP
004E10
006330
05EE40
2B22A0
630090
761770
1CE900
045000
ENDCHAR
STARTCHAR uni1ED9
ENCODING 7897
SWIDTH 515 0
DWIDTH 4 0
BBX 4 7 0 -1
BITMAP
00C6
0447
1AE6
751A
9248
5EB1
0900
ENDCHAR
STARTCHAR uni1EDA
ENCODING 7898
SWIDTH 633 0
DWIDTH 5 0
BBX 6 7 0 0
BITMAP
001720
000043
05EDB1
2B2280
6300A0
761780
1CE900
ENDCHAR
STARTCHAR uni1EDB
ENCODING 7899
SWIDTH 517 0
DWIDTH 4 0
BBX 5 6 0 0
BITMAP
002700
008360
1AEC20
751A00
924900
5EC200
ENDCHAR
STARTCHAR uni1EDC
ENCODING 7900
SWIDTH 633 0
DWIDTH 5 0
BBX 6 7 0 0
BITMAP
004400
000043
05EDB1
2B2280
6300A0
761780
1CE900
ENDCHAR
STARTCHAR uni1EDD
ENCODING 7901
SWIDTH 517 0
DWIDTH 4 0
BBX 5 6 0 0
BITMAP
018000
007360
1AEC20
751A00
924900
5EC200
ENDCHAR
STARTCHAR uni1EDE
ENCODING 7902
SWIDTH 633 0
DWIDTH 5 0
BBX 6 7 0 0
BITMAP
003800
001743
05EDB1
2B2280
6300A0
761780
1CE900
ENDCHAR
STARTCHAR uni1EDF
ENCODING 7903
SWIDTH 517 0
DWIDTH 4 0
BBX 5 6 0 0
BITMAP
00A200
006560
1AEC20
751A00
924900
5EC200
ENDCHAR
STARTCHAR uni1EE0
ENCODING 7904
SWIDTH 633 0
DWIDTH 5 0
BBX 6 8 0 0
BITMAP
01E470
053D20
000043
05EDB1
2B2280
6300A0
761780
1CE900
ENDCHAR
STARTCHAR uni1EE1
ENCODING 7905
SWIDTH 517 0
DWIDTH 4 0
BBX 5 8 0 0
BITMAP
011100
099700
067700
000260
1AEC20
751A00
924900
5EC200
ENDCHAR
STARTCHAR uni1EE2
ENCODING 7906
SWIDTH 633 0
DWIDTH 5 0
BBX 6 7 0 -1
BITMAP
000043
05EDB1
2B2280
6300A0
761780
1CE900
054000
ENDCHAR
STARTCHAR uni1EE3
ENCODING 7907
SWIDTH 517 0
DWIDTH 4 0
BBX 5 6 0 -1
BITMAP
000260
1AEC20
751A00
924900
5EC200
180000
ENDCHAR
STARTCHAR uni1EE4
ENCODING 7908
SWIDTH 616 0
DWIDTH 5 0
BBX 5 6 0 -1
BITMAP
090090
180190
350550
571B20
1CE700
063000
ENDCHAR
STARTCHAR uni1EE5
ENCODING 7909
SWIDTH 528 0
DWIDTH 4 0
BBX 4 5 0 -1
BITMAP
1809
440A
7377
6EA4
0810
ENDCHAR
STARTCHAR uni1EE6
ENCODING 7910
SWIDTH 616 0
DWIDTH 5 0
BBX 5 7 0 0
BITMAP
003800
001700
090090
180190
350550
571B20
1CE700
ENDCHAR
STARTCHAR uni1EE7
ENCODING 7911
SWIDTH 528 0
DWIDTH 4 0
BBX 4 6 0 0
BITMAP
00A2
0063
1809
440A
7377
6EA4
ENDCHAR
STARTCHAR uni1EE8
ENCODING 7912
SWIDTH 629 0
DWIDTH 5 0
BBX 6 7 0 0
BITMAP
001720
000008
0900A2
180190
350560
571B20
1CE700
ENDCHAR
STARTCHAR uni1EE9
ENCODING 7913
SWIDTH 543 0
DWIDTH 4 0
BBX 5 6 0 0
BITMAP
002800
008280
180A30
440A00
737700
6EA400
ENDCHAR
STARTCHAR uni1EEA
ENCODING 7914
SWIDTH 629 0
DWIDTH 5 0
BBX 6 7 0 0
BITMAP
004400
000008
0900A2
180190
350560
571B20
1CE700
ENDCHAR
STARTCHAR uni1EEB
ENCODING 7915
SWIDTH 543 0
DWIDTH 4 0
BBX 5 6 0 0
BITMAP
018000
007280
180A30
440A00
737700
6EA400
ENDCHAR
STARTCHAR uni1EEC
ENCODING 7916
SWIDTH 629 0
DWIDTH 5 0
BBX 6 7 0 0
BITMAP
004800
001708
0900A2
180190
350560
571B20
1CE700
ENDCHAR
STARTCHAR uni1EED
ENCODING 7917
SWIDTH 543 0
DWIDTH 4 0
BBX 5 6 0 0
BITMAP
00A200
006480
180A30
440A00
737700
6EA400
ENDCHAR
STARTCHAR uni1EEE
ENCODING 7918
SWIDTH 629 0
DWIDTH 5 0
BBX 6 8 0 0
BITMAP
00D670
025C50
000008
0900A2
180190
350560
571B20
1CE700
ENDCHAR
STARTCHAR uni1EEF
ENCODING 7919
SWIDTH 543 0
DWIDTH 4 0
BBX 5 8 0 0
BITMAP
001100
07B710
075A00
000080
180A30
440A00
737700
6EA400
ENDCHAR
STARTCHAR uni1EF0
ENCODING 7920
SWIDTH 629 0
DWIDTH 5 0
BBX 6 7 0 -1
BITMAP
000008
0900A2
180190
350560
571B20
1CE700
063000
ENDCHAR
STARTCHAR uni1EF1
ENCODING 7921
SWIDTH 543 0
DWIDTH 4 0
BBX 5 6 0 -1
BITMAP
000080
180A30
440A00
737700
6EA400
081000
ENDCHAR
STARTCHAR Ygrave
ENCODING 7922
SWIDTH 461 0
DWIDTH 4 0
BBX 5 7 0 0
BITMAP
027000
000000
360910
095400
097000
091000
090000
ENDCHAR
STARTCHAR ygrave
ENCODING 7923
SWIDTH 448 0
DWIDTH 4 0
BBX 5 8 -1 -2
BITMAP
005300
000800
072180
044720
027800
00D200
028000
6C1000
ENDCHAR
STARTCHAR uni1EF4
ENCODING 7924
SWIDTH 461 0
DWIDTH 4 0
BBX 5 6 0 -1
BITMAP
360910
095400
097000
091000
090000
180000
ENDCHAR
STARTCHAR uni1EF5
ENCODING 7925
SWIDTH 448 0
DWIDTH 4 0
BBX 5 6 -1 -2
BITMAP
072180
044720
027800
00D200
029800
6C1000
ENDCHAR
STARTCHAR uni1EF6
ENCODING 7926
SWIDTH 461 0
DWIDTH 4 0
BBX 5 7 0 0
BITMAP
00B000
008100
360910
095400
097000
091000
090000
ENDCHAR
STARTCHAR uni1EF7
ENCODING 7927
SWIDTH 448 0
DWIDTH 4 0
BBX 5 8 -1 -2
BITMAP
001B00
000900
072180
044720
027800
00D200
028000
6C1000
ENDCHAR
STARTCHAR uni1EF8
ENCODING 7928
SWIDTH 461 0
DWIDTH 4 0
BBX 5 8 0 0
BITMAP
08A700
077900
000000
360910
095400
097000
091000
090000
ENDCHAR
STARTCHAR uni1EF9
ENCODING 7929
SWIDTH 448 0
DWIDTH 4 0
BBX 5 10 -1 -2
BITMAP
001010
00B780
006960
000000
072180
044720
027800
00D200
028000
6C1000
ENDCHAR
STARTCHAR uni2007
ENCODING 8199
SWIDTH 480 0
DWIDTH 4 0
BBX 1 1 0 0
BITMAP
00
ENDCHAR
STARTCHAR figuredash
ENCODING 8210
SWIDTH 480 0
DWIDTH 4 0
BBX 4 1 0 2
BITMAP
AFF8
ENDCHAR
STARTCHAR endash
ENCODING 8211
SWIDTH 463 0
DWIDTH 4 0
BBX 4 1 0 2
BITMAP
AFF6
ENDCHAR
STARTCHAR emdash
ENCODING 8212
SWIDTH 769 0
DWIDTH 6 0
BBX 6 1 0 2
BITMAP
AFFFFC
ENDCHAR
STARTCHAR uni2015
ENCODING 8213
SWIDTH 769 0
DWIDTH 6 0
BBX 6 1 0 2
BITMAP
AFFFFC
ENDCHAR
STARTCHAR quoteleft
ENCODING 8216
SWIDTH 242 0
DWIDTH 2 0
BBX 2 3 0 3
BITMAP
01
07
19
ENDCHAR
STARTCHAR quoteright
ENCODING 8217
SWIDTH 242 0
DWIDTH 2 0
BBX 1 3 1 3
BITMAP
90
70
10
ENDCHAR
STARTCHAR quotesinglbase
ENCODING 8218
SWIDTH 242 0
DWIDTH 2 0
BBX 2 3 0 -2
BITMAP
91
70
10
ENDCHAR
STARTCHAR quotedblleft
ENCODING 8220
SWIDTH 408 0
DWIDTH 3 0
BBX 4 3 0 3
BITMAP
0101
0761
19A0
ENDCHAR
STARTCHAR quotedblright
ENCODING 8221
SWIDTH 408 0
DWIDTH 3 0
BBX 3 3 1 3
BITMAP
9650
7530
1100
ENDCHAR
STARTCHAR quotedblbase
ENCODING 8222
SWIDTH 408 0
DWIDTH 3 0
BBX 3 3 0 -2
BITMAP
9550
7430
1100
ENDCHAR
STARTCHAR dagger
ENCODING 8224
SWIDTH 435 0
DWIDTH 3 0
BBX 4 7 0 -1
BITMAP
0080
2FF7
0340
0610
0700
0800
0400
ENDCHAR
STARTCHAR daggerdbl
ENCODING 8225
SWIDTH 435 0
DWIDTH 3 0
BBX 4 8 0 -2
BITMAP
0080
2FF7
0340
0610
0700
CFC0
0700
0200
ENDCHAR
STARTCHAR bullet
ENCODING 8226
SWIDTH 295 0
DWIDTH 2 0
BBX 2 2 0 1
BITMAP
6D
7C
ENDCHAR
STARTCHAR ellipsis
ENCODING 8230
SWIDTH 960 0
DWIDTH 8 0
BBX 7 1 0 0
BITMAP
36081090
ENDCHAR
STARTCHAR uni202F
ENCODING 8239
SWIDTH 121 0
DWIDTH 1 0
BBX 1 1 0 0
BITMAP
00
ENDCHAR
STARTCHAR perthousand
ENCODING 8240
SWIDTH 1144 0
DWIDTH 9 0
BBX 9 6 0 0
BITMAP
1C90520000
5481500000
7287BB1D80
4E96586380
0156398180
0603E65E30
ENDCHAR
STARTCHAR uni2032
ENCODING 8242
SWIDTH 242 0
DWIDTH 2 0
BBX 1 2 1 3
BITMAP
80
70
ENDCHAR
STARTCHAR uni2033
ENCODING 8243
SWIDTH 408 0
DWIDTH 3 0
BBX 3 2 1 3
BITMAP
8530
7700
ENDCHAR
STARTCHAR guilsinglleft
ENCODING 8249
SWIDTH 252 0
DWIDTH 2 0
BBX 2 3 0 1
BITMAP
16
80
33
ENDCHAR
STARTCHAR guilsinglright
ENCODING 8250
SWIDTH 252 0
DWIDTH 2 0
BBX 2 3 0 1
BITMAP
34
08
51
ENDCHAR
STARTCHAR fraction
ENCODING 8260
SWIDTH 84 0
DWIDTH 1 0
BBX 5 5 -2 0
BITMAP
000330
001500
006000
061000
420000
ENDCHAR
STARTCHAR zero.sups
ENCODING 8304
SWIDTH 357 0
DWIDTH 3 0
BBX 4 4 0 3
BITMAP
09D0
2762
4581
1D80
ENDCHAR
STARTCHAR i.sups
ENCODING 8305
SWIDTH 163 0
DWIDTH 1 0
BBX 2 4 0 3
BITMAP
07
14
43
60
ENDCHAR
STARTCHAR four.sups
ENCODING 8308
SWIDTH 354 0
DWIDTH 3 0
BBX 3 3 0 3
BITMAP
02A0
2DF0
0050
ENDCHAR
STARTCHAR five.sups
ENCODING 8309
SWIDTH 351 0
DWIDTH 3 0
BBX 4 3 0 3
BITMAP
09F2
2DA0
1E90
ENDCHAR
STARTCHAR six.sups
ENCODING 8310
SWIDTH 353 0
DWIDTH 3 0
BBX 4 4 0 3
BITMAP
07D1
1910
3EB0
1D90
ENDCHAR
STARTCHAR seven.sups
ENCODING 8311
SWIDTH 353 0
DWIDTH 3 0
BBX 3 4 1 2
BITMAP
CF40
0600
5200
5000
ENDCHAR
STARTCHAR eight.sups
ENCODING 8312
SWIDTH 353 0
DWIDTH 3 0
BBX 3 4 0 3
BITMAP
09C0
0550
2460
2E80
ENDCHAR
STARTCHAR nine.sups
ENCODING 8313
SWIDTH 353 0
DWIDTH 3 0
BBX 3 4 0 3
BITMAP
0AB0
1890
0DC0
2E50
ENDCHAR
STARTCHAR parenleft.sups
ENCODING 8317
SWIDTH 227 0
DWIDTH 2 0
BBX 3 4 0 3
BITMAP
0420
0700
1600
0600
ENDCHAR
STARTCHAR parenright.sups
ENCODING 8318
SWIDTH 226 0
DWIDTH 2 0
BBX 2 4 0 3
BITMAP
06
07
07
43
ENDCHAR
STARTCHAR n.sups
ENCODING 8319
SWIDTH 355 0
DWIDTH 3 0
BBX 3 4 0 2
BITMAP
2AA0
4570
6170
1010
ENDCHAR
STARTCHAR zero.subs
ENCODING 8320
SWIDTH 357 0
DWIDTH 3 0
BBX 4 4 -1 -1
BITMAP
07D1
0844
2672
0D90
ENDCHAR
STARTCHAR one.subs
ENCODING 8321
SWIDTH 356 0
DWIDTH 3 0
BBX 2 4 0 -2
BITMAP
4A
07
25
22
ENDCHAR
STARTCHAR two.subs
ENCODING 8322
SWIDTH 353 0
DWIDTH 3 0
BBX 4 4 -1 -1
BITMAP
06D1
0260
0000
1DD0
ENDCHAR
STARTCHAR three.subs
ENCODING 8323
SWIDTH 351 0
DWIDTH 3 0
BBX 4 4 -1 -1
BITMAP
07D0
0181
18A0
0CB0
ENDCHAR
STARTCHAR four.subs
ENCODING 8324
SWIDTH 354 0
DWIDTH 3 0
BBX 4 3 -1 -1
BITMAP
01B0
1CF2
0050
ENDCHAR
STARTCHAR five.subs
ENCODING 8325
SWIDTH 351 0
DWIDTH 3 0
BBX 4 3 -1 -1
BITMAP
07F4
1CC0
0DB0
ENDCHAR
STARTCHAR six.subs
ENCODING 8326
SWIDTH 353 0
DWIDTH 3 0
BBX 4 4 -1 -1
BITMAP
06E2
0A10
1EC0
0CB0
ENDCHAR
STARTCHAR seven.subs
ENCODING 8327
SWIDTH 353 0
DWIDTH 3 0
BBX 3 4 0 -2
BITMAP
AF60
0500
3400
5000
ENDCHAR
STARTCHAR eight.subs
ENCODING 8328
SWIDTH 353 0
DWIDTH 3 0
BBX 4 4 -1 -1
BITMAP
07E1
0641
1570
1DA0
ENDCHAR
STARTCHAR nine.subs
ENCODING 8329
SWIDTH 353 0
DWIDTH 3 0
BBX 4 4 -1 -1
BITMAP
08C0
0872
0CE1
1D70
ENDCHAR
STARTCHAR parenleft.subs
ENCODING 8333
SWIDTH 227 0
DWIDTH 2 0
BBX 2 4 0 -1
BITMAP
33
70
70
60
ENDCHAR
STARTCHAR parenright.subs
ENCODING 8334
SWIDTH 226 0
DWIDTH 2 0
BBX 2 4 -1 -1
BITMAP
06
07
07
24
ENDCHAR
STARTCHAR uni0259.sups
ENCODING 8340
SWIDTH 320 0
DWIDTH 3 0
BBX 3 3 0 3
BITMAP
1D60
8F90
6E30
ENDCHAR
STARTCHAR colonmonetary
ENCODING 8353
SWIDTH 480 0
DWIDTH 4 0
BBX 4 7 0 -1
BITMAP
0034
05CB
2771
6540
7652
2EC1
2500
ENDCHAR
STARTCHAR lira
ENCODING 8356
SWIDTH 480 0
DWIDTH 4 0
BBX 4 5 0 0
BITMAP
05E8
0A14
EFF1
0700
AFF2
ENDCHAR
STARTCHAR uni20A6
ENCODING 8358
SWIDTH 480 0
DWIDTH 4 0
BBX 4 5 0 0
BITMAP
0B07
0B27
FFFF
72C0
70B0
ENDCHAR
STARTCHAR peseta
ENCODING 8359
SWIDTH 480 0
DWIDTH 4 0
BBX 4 5 0 0
BITMAP
0DE6
9FFF
3FD3
6200
9000
ENDCHAR
STARTCHAR dong
ENCODING 8363
SWIDTH 480 0
DWIDTH 4 0
BBX 5 6 0 0
BITMAP
000500
00EF40
0BB800
556400
3ED100
BFF100
ENDCHAR
STARTCHAR Euro
ENCODING 8364
SWIDTH 480 0
DWIDTH 4 0
BBX 4 5 0 0
BITMAP
09EA
9FFB
CFE0
4812
0CD2
ENDCHAR
STARTCHAR uni20B1
ENCODING 8369
SWIDTH 480 0
DWIDTH 4 0
BBX 5 5 0 0
BITMAP
0DE500
FFFF20
4FC200
720000
900000
ENDCHAR
STARTCHAR uni20B2
ENCODING 8370
SWIDTH 480 0
DWIDTH 4 0
BBX 4 7 0 -1
BITMAP
0055
0524
4300
80B9
8436
3ED2
0500
ENDCHAR
STARTCHAR uni20B5
ENCODING 8373
SWIDTH 480 0
DWIDTH 4 0
BBX 4 8 0 -1
BITMAP
0012
03B8
1D91
5740
7340
5362
19C1
0400
ENDCHAR
STARTCHAR uni20B9
ENCODING 8377
SWIDTH 480 0
DWIDTH 4 0
BBX 4 5 0 0
BITMAP
0DFF
2FFC
6FD1
0620
0180
ENDCHAR
STARTCHAR uni20BA
ENCODING 8378
SWIDTH 480 0
DWIDTH 4 0
BBX 4 5 0 0
BITMAP
0631
2B62
4A26
1865
4C50
ENDCHAR
STARTCHAR uni2113
ENCODING 8467
SWIDTH 394 0
DWIDTH 3 0
BBX 4 6 0 0
BITMAP
03E5
0A45
0A40
2910
9520
2E70
ENDCHAR
STARTCHAR uni2117
ENCODING 8471
SWIDTH 665 0
DWIDTH 5 0
BBX 6 6 0 0
BITMAP
04DE60
2A2191
60ED34
52FB52
793490
1BEA10
ENDCHAR
STARTCHAR uni2120
ENCODING 8480
SWIDTH 601 0
DWIDTH 5 0
BBX 6 3 0 3
BITMAP
1E4983
2259C0
6E7880
ENDCHAR
STARTCHAR trademark
ENCODING 8482
SWIDTH 611 0
DWIDTH 5 0
BBX 6 4 0 2
BITMAP
5FAA74
073AC1
075890
010000
ENDCHAR
STARTCHAR uni2126
ENCODING 8486
SWIDTH 658 0
DWIDTH 5 0
BBX 5 5 0 0
BITMAP
04DE80
2C31C0
640070
530020
FA1C80
ENDCHAR
STARTCHAR estimated
ENCODING 8494
SWIDTH 800 0
DWIDTH 6 0
BBX 7 5 0 0
BITMAP
05CEA100
3A102A00
6FFFFF20
3A100000
05DFB200
ENDCHAR
STARTCHAR onethird
ENCODING 8531
SWIDTH 778 0
DWIDTH 6 0
BBX 5 5 1 0
BITMAP
B20600
605C80
743280
543B50
603E60
ENDCHAR
STARTCHAR twothirds
ENCODING 8532
SWIDTH 795 0
DWIDTH 6 0
BBX 6 6 0 0
BITMAP
0B9000
026042
0002DA
4E8618
006397
0512E8
ENDCHAR
STARTCHAR oneeighth
ENCODING 8539
SWIDTH 773 0
DWIDTH 6 0
BBX 5 5 1 0
BITMAP
B20600
605D90
733550
555260
605E50
ENDCHAR
STARTCHAR threeeighths
ENCODING 8540
SWIDTH 787 0
DWIDTH 6 0
BBX 6 6 0 0
BITMAP
0C7000
028052
3C43FA
4E6555
006426
0514E6
ENDCHAR
STARTCHAR fiveeighths
ENCODING 8541
SWIDTH 787 0
DWIDTH 6 0
BBX 6 5 0 0
BITMAP
0DD052
4F73FA
3F7555
006426
0514E6
ENDCHAR
STARTCHAR seveneighths
ENCODING 8542
SWIDTH 770 0
DWIDTH 6 0
BBX 6 5 0 0
BITMAP
3FD060
0246D8
074355
164516
1606E4
ENDCHAR
STARTCHAR uni2190
ENCODING 8592
SWIDTH 593 0
DWIDTH 5 0
BBX 5 5 0 0
BITMAP
024000
260000
AFFF90
260000
024000
ENDCHAR
STARTCHAR arrowup
ENCODING 8593
SWIDTH 593 0
DWIDTH 5 0
BBX 5 4 0 0
BITMAP
04B100
558720
008010
008000
ENDCHAR
STARTCHAR uni2192
ENCODING 8594
SWIDTH 593 0
DWIDTH 5 0
BBX 5 5 0 0
BITMAP
006100
000700
DFFF60
000700
006100
ENDCHAR
STARTCHAR arrowdown
ENCODING 8595
SWIDTH 593 0
DWIDTH 5 0
BBX 5 4 0 0
BITMAP
008000
008010
558720
04B100
ENDCHAR
STARTCHAR partialdiff
ENCODING 8706
SWIDTH 519 0
DWIDTH 4 0
BBX 4 5 0 0
BITMAP
04E9
021B
3DDA
A257
8E90
ENDCHAR
STARTCHAR uni2206
ENCODING 8710
SWIDTH 565 0
DWIDTH 5 0
BBX 5 5 -1 0
BITMAP
000B50
004970
009090
051090
1EFFD0
ENDCHAR
STARTCHAR product
ENCODING 8719
SWIDTH 646 0
DWIDTH 5 0
BBX 5 7 0 -2
BITMAP
3FFF80
360180
360180
360180
360180
360180
230040
ENDCHAR
STARTCHAR summation
ENCODING 8721
SWIDTH 485 0
DWIDTH 4 0
BBX 4 6 0 -1
BITMAP
8FFB
1500
0350
0440
1500
9FFE
ENDCHAR
STARTCHAR minus
ENCODING 8722
SWIDTH 480 0
DWIDTH 4 0
BBX 4 1 0 2
BITMAP
9FFA
ENDCHAR
STARTCHAR uni2215
ENCODING 8725
SWIDTH 84 0
DWIDTH 1 0
BBX 5 5 -2 0
BITMAP
000330
001500
006000
061000
420000
ENDCHAR
STARTCHAR uni2219
ENCODING 8729
SWIDTH 244 0
DWIDTH 2 0
BBX 2 1 0 2
BITMAP
36
ENDCHAR
STARTCHAR radical
ENCODING 8730
SWIDTH 537 0
DWIDTH 4 0
BBX 6 8 0 -1
BITMAP
000041
000070
000250
020700
381700
076200
078000
074000
ENDCHAR
STARTCHAR infinity
ENCODING 8734
SWIDTH 752 0
DWIDTH 6 0
BBX 6 3 0 1
BITMAP
6E8CE4
92C828
6E7BE4
ENDCHAR
STARTCHAR integral
ENCODING 8747
SWIDTH 321 0
DWIDTH 3 0
BBX 5 9 -1 -2
BITMAP
001D20
006500
009000
009000
009000
009000
019000
056000
2D1000
ENDCHAR
STARTCHAR approxequal
ENCODING 8776
SWIDTH 480 0
DWIDTH 4 0
BBX 4 5 0 0
BITMAP
0003
4FF3
3003
4FF3
3000
ENDCHAR
STARTCHAR notequal
ENCODING 8800
SWIDTH 480 0
DWIDTH 4 0
BBX 4 5 0 0
BITMAP
0043
9FFA
0340
9FFA
2400
ENDCHAR
STARTCHAR lessequal
ENCODING 8804
SWIDTH 480 0
DWIDTH 4 0
BBX 4 5 0 0
BITMAP
0001
1684
6930
0055
9FFA
ENDCHAR
STARTCHAR greaterequal
ENCODING 8805
SWIDTH 480 0
DWIDTH 4 0
BBX 4 5 0 0
BITMAP
1000
4861
0387
5510
9FFA
ENDCHAR
STARTCHAR uni231C
ENCODING 8988
SWIDTH 292 0
DWIDTH 2 0
BBX 3 7 0 -1
BITMAP
0AB0
0800
1700
3500
6200
7000
1000
ENDCHAR
STARTCHAR uni231D
ENCODING 8989
SWIDTH 293 0
DWIDTH 2 0
BBX 3 7 0 -1
BITMAP
1F30
0510
0600
0600
0600
2500
1000
ENDCHAR
STARTCHAR uni231E
ENCODING 8990
SWIDTH 292 0
DWIDTH 2 0
BBX 2 7 0 -1
BITMAP
01
07
06
24
51
60
A9
ENDCHAR
STARTCHAR uni231F
ENCODING 8991
SWIDTH 293 0
DWIDTH 2 0
BBX 4 7 -1 -1
BITMAP
0011
0062
0080
0080
0080
0260
3F30
ENDCHAR
STARTCHAR uni25A0
ENCODING 9632
SWIDTH 895 0
DWIDTH 7 0
BBX 7 6 0 0
BITMAP
8FFFFFE0
8FFFFFE0
8FFFFFE0
8FFFFFE0
8FFFFFE0
8FFFFFE0
ENDCHAR
STARTCHAR triagup
ENCODING 9650
SWIDTH 895 0
DWIDTH 7 0
BBX 7 7 0 -1
BITMAP
00071000
001E6000
006FD000
00DFF500
05FFFC00
0CFFFF30
3FFFFFA0
ENDCHAR
STARTCHAR uni25B3
ENCODING 9651
SWIDTH 895 0
DWIDTH 7 0
BBX 7 7 0 -1
BITMAP
00030000
00053000
00314000
00401300
03100400
05000220
3FFFFFA0
ENDCHAR
STARTCHAR uni25B6
ENCODING 9654
SWIDTH 895 0
DWIDTH 7 0
BBX 7 6 0 0
BITMAP
78200000
8FFA3000
8FFFFB40
8FFFFB40
8FFA3000
78200000
ENDCHAR
STARTCHAR uni25B7
ENCODING 9655
SWIDTH 895 0
DWIDTH 7 0
BBX 7 6 0 0
BITMAP
77200000
71673000
70004740
70004740
71673000
77200000
ENDCHAR
STARTCHAR triagdn
ENCODING 9660
SWIDTH 895 0
DWIDTH 7 0
BBX 7 7 0 -1
BITMAP
3FFFFFA0
0CFFFF30
05FFFC00
00DFF500
006FD000
001E6000
00071000
ENDCHAR
STARTCHAR uni25BD
ENCODING 9661
SWIDTH 895 0
DWIDTH 7 0
BBX 7 7 0 -1
BITMAP
3FFFFFA0
05000220
03100400
00401300
00314000
00053000
00030000
ENDCHAR
STARTCHAR uni25C0
ENCODING 9664
SWIDTH 895 0
DWIDTH 7 0
BBX 7 6 0 0
BITMAP
000005B0
0017DFE0
28EFFFE0
28EFFFE0
0017DFE0
000005B0
ENDCHAR
STARTCHAR uni25C1
ENCODING 9665
SWIDTH 895 0
DWIDTH 7 0
BBX 7 6 0 0
BITMAP
000005A0
00167270
27710070
27610070
00167270
000005A0
ENDCHAR
STARTCHAR uni25C6
ENCODING 9670
SWIDTH 895 0
DWIDTH 7 0
BBX 7 7 0 -1
BITMAP
000A4000
00AFE300
0AFFFE30
6FFFFFD0
0AFFFE30
00AFE300
000A4000
ENDCHAR
STARTCHAR uni25C9
ENCODING 9673
SWIDTH 895 0
DWIDTH 7 0
BBX 7 7 0 -1
BITMAP
02BED600
1CADCA60
75FFF9A0
84FFFB80
73DFF5A0
1B555960
02BED600
ENDCHAR
STARTCHAR lozenge
ENCODING 9674
SWIDTH 499 0
DWIDTH 4 0
BBX 4 5 0 0
BITMAP
06A0
0A82
5418
0A82
06A0
ENDCHAR
STARTCHAR uni2610
ENCODING 9744
SWIDTH 765 0
DWIDTH 6 0
BBX 6 6 0 0
BITMAP
5FFFF8
500008
500008
500008
500008
7FFFF7
ENDCHAR
STARTCHAR uni2611
ENCODING 9745
SWIDTH 766 0
DWIDTH 6 0
BBX 7 7 0 0
BITMAP
00000540
5FFFF900
50008800
55071800
54730800
50500800
7FFFF700
ENDCHAR
STARTCHAR uni266A
ENCODING 9834
SWIDTH 480 0
DWIDTH 4 0
BBX 4 7 0 0
BITMAP
0010
01C2
0178
0155
0150
6E50
9D10
ENDCHAR
STARTCHAR uni2713
ENCODING 10003
SWIDTH 542 0
DWIDTH 4 0
BBX 5 7 0 -1
BITMAP
000020
000370
002700
308000
862000
770000
100000
ENDCHAR
STARTCHAR uni2752
ENCODING 10066
SWIDTH 895 0
DWIDTH 7 0
BBX 7 7 0 -1
BITMAP
6FFFFFE0
50000090
50000090
50000090
50000090
50000090
8FFFFFC0
ENDCHAR
STARTCHAR uni2E22
ENCODING 11810
SWIDTH 292 0
DWIDTH 2 0
BBX 3 4 0 2
BITMAP
0AC0
0800
0800
2500
ENDCHAR
STARTCHAR uni2E23
ENCODING 11811
SWIDTH 293 0
DWIDTH 2 0
BBX 3 5 0 1
BITMAP
1F40
0410
0600
0700
0100
ENDCHAR
STARTCHAR uni2E24
ENCODING 11812
SWIDTH 292 0
DWIDTH 2 0
BBX 2 4 0 -2
BITMAP
52
60
60
D7
ENDCHAR
STARTCHAR uni2E25
ENCODING 11813
SWIDTH 293 0
DWIDTH 2 0
BBX 3 5 -1 -2
BITMAP
0010
0070
0260
0530
5F10
ENDCHAR
STARTCHAR f_f
ENCODING 64256
SWIDTH 552 0
DWIDTH 4 0
BBX 6 6 0 0
BITMAP
05E6E3
0A1920
6FFFA0
180900
542700
816400
ENDCHAR
STARTCHAR fi
ENCODING 64257
SWIDTH 519 0
DWIDTH 4 0
BBX 5 6 0 0
BITMAP
06E720
0A1000
6F7900
180900
543600
816300
ENDCHAR
STARTCHAR fl
ENCODING 64258
SWIDTH 530 0
DWIDTH 4 0
BBX 5 6 0 0
BITMAP
06E820
0A1900
6F7800
181700
543500
815700
ENDCHAR
STARTCHAR uniFEFF
ENCODING 65279
SWIDTH 0 0
DWIDTH 0 0
BBX 1 1 0 0
BITMAP
00
ENDCHAR
STARTCHAR .notdef
ENCODING -1
SWIDTH 628 0
DWIDTH 5 0
BBX 5 5 0 0
BITMAP
0BFFC0
086470
35C370
652940
9FFF10
ENDCHAR
STARTCHAR uni00470303
ENCODING -1
SWIDTH 588 0
DWIDTH 5 0
BBX 5 8 0 0
BITMAP
00B770
016A60
000000
04DD20
2B2230
735F40
760810
1CE900
ENDCHAR
STARTCHAR uni00670303
ENCODING -1
SWIDTH 531 0
DWIDTH 4 0
BBX 5 10 0 -2
BITMAP
001100
06C710
074B00
000000
0AEA00
761A00
A16800
6EC500
41A200
8E8000
ENDCHAR
STARTCHAR iogonek.d
ENCODING -1
SWIDTH 237 0
DWIDTH 2 0
BBX 3 6 -1 -2
BITMAP
0180
0450
0720
0900
1500
4B00
ENDCHAR
STARTCHAR f_t
ENCODING -1
SWIDTH 561 0
DWIDTH 4 0
BBX 5 6 0 0
BITMAP
06E100
0A1800
6FFF90
183600
546300
816E10
ENDCHAR
STARTCHAR I.a
ENCODING -1
SWIDTH 324 0
DWIDTH 3 0
BBX 3 5 0 0
BITMAP
1FD0
0910
0900
3700
FE00
ENDCHAR
STARTCHAR Igrave.a
ENCODING -1
SWIDTH 324 0
DWIDTH 3 0
BBX 3 7 0 0
BITMAP
0620
0000
1FD0
0910
0900
3700
FE00
ENDCHAR
STARTCHAR Iacute.a
ENCODING -1
SWIDTH 324 0
DWIDTH 3 0
BBX 3 7 0 0
BITMAP
0270
0000
1FD0
0910
0900
3700
FE00
ENDCHAR
STARTCHAR Icircumflex.a
ENCODING -1
SWIDTH 324 0
DWIDTH 3 0
BBX 4 7 0 0
BITMAP
08B0
1661
1FD0
0910
0900
3700
FE00
ENDCHAR
STARTCHAR Itilde.a
ENCODING -1
SWIDTH 324 0
DWIDTH 3 0
BBX 4 8 0 0
BITMAP
2E46
53D2
0000
1FD0
0910
0900
3700
FE00
ENDCHAR
STARTCHAR Idieresis.a
ENCODING -1
SWIDTH 324 0
DWIDTH 3 0
BBX 4 7 0 0
BITMAP
0771
0000
1FD0
0910
0900
3700
FE00
ENDCHAR
STARTCHAR Imacron.a
ENCODING -1
SWIDTH 324 0
DWIDTH 3 0
BBX 3 7 0 0
BITMAP
0FF0
0000
1FD0
0910
0900
3700
FE00
ENDCHAR
STARTCHAR Idotaccent.a
ENCODING -1
SWIDTH 324 0
DWIDTH 3 0
BBX 3 7 0 0
BITMAP
0450
0000
1FD0
0910
0900
3700
FE00
ENDCHAR
STARTCHAR uni01CF.a
ENCODING -1
SWIDTH 324 0
DWIDTH 3 0
BBX 4 7 0 0
BITMAP
0661
0A90
1FD0
0910
0900
3700
FE00
ENDCHAR
STARTCHAR uni1EC8.a
ENCODING -1
SWIDTH 324 0
DWIDTH 3 0
BBX 3 7 0 0
BITMAP
0650
0360
1FD0
0910
0900
3700
FE00
ENDCHAR
STARTCHAR uni1ECA.a
ENCODING -1
SWIDTH 324 0
DWIDTH 3 0
BBX 3 6 0 -1
BITMAP
1FD0
0910
0900
3700
FE00
8100
ENDCHAR
STARTCHAR Iogonek.a
ENCODING -1
SWIDTH 324 0
DWIDTH 3 0
BBX 3 7 0 -2
BITMAP
1FD0
0910
0900
3700
FE00
6000
D200
ENDCHAR
STARTCHAR a.a
ENCODING -1
SWIDTH 492 0
DWIDTH 4 0
BBX 4 4 0 0
BITMAP
0AE4
0237
5DF4
9EC1
ENDCHAR
STARTCHAR agrave.a
ENCODING -1
SWIDTH 492 0
DWIDTH 4 0
BBX 4 6 0 0
BITMAP
0270
0080
0AE4
0237
5DF4
9EC1
ENDCHAR
STARTCHAR aacute.a
ENCODING -1
SWIDTH 492 0
DWIDTH 4 0
BBX 4 6 0 0
BITMAP
0037
0081
0AE4
0237
5DF4
9EC1
ENDCHAR
STARTCHAR acircumflex.a
ENCODING -1
SWIDTH 492 0
DWIDTH 4 0
BBX 4 6 0 0
BITMAP
01E4
0636
0AE4
0237
5DF4
9EC1
ENDCHAR
STARTCHAR atilde.a
ENCODING -1
SWIDTH 492 0
DWIDTH 4 0
BBX 4 8 0 0
BITMAP
0011
08A8
0769
0000
0AE4
0237
5DF4
9EC1
ENDCHAR
STARTCHAR adieresis.a
ENCODING -1
SWIDTH 492 0
DWIDTH 4 0
BBX 4 6 0 0
BITMAP
0617
0000
0AE4
0237
5DF4
9EC1
ENDCHAR
STARTCHAR amacron.a
ENCODING -1
SWIDTH 492 0
DWIDTH 4 0
BBX 4 5 0 0
BITMAP
07F8
0AE4
0237
5DF4
9EC1
ENDCHAR
STARTCHAR abreve.a
ENCODING -1
SWIDTH 492 0
DWIDTH 4 0
BBX 4 6 0 0
BITMAP
0616
03D4
0AE4
0237
5DF4
9EC1
ENDCHAR
STARTCHAR aring.a
ENCODING -1
SWIDTH 492 0
DWIDTH 4 0
BBX 4 6 0 0
BITMAP
02D4
02E3
0AE4
0237
5DF4
9EC1
ENDCHAR
STARTCHAR uni01CE.a
ENCODING -1
SWIDTH 492 0
DWIDTH 4 0
BBX 4 6 0 0
BITMAP
0637
02E2
0AE4
0237
5DF4
9EC1
ENDCHAR
STARTCHAR uni1EA1.a
ENCODING -1
SWIDTH 492 0
DWIDTH 4 0
BBX 4 5 0 -1
BITMAP
0AE4
0237
5DF4
9EC1
0900
ENDCHAR
STARTCHAR uni1EA3.a
ENCODING -1
SWIDTH 492 0
DWIDTH 4 0
BBX 4 6 0 0
BITMAP
00A1
0072
0AE4
0237
5DF4
9EC1
ENDCHAR
STARTCHAR uni1EA5.a
ENCODING -1
SWIDTH 492 0
DWIDTH 4 0
BBX 5 7 0 0
BITMAP
000010
01D720
033400
0AE400
023700
5DF400
9EC100
ENDCHAR
STARTCHAR uni1EA7.a
ENCODING -1
SWIDTH 492 0
DWIDTH 4 0
BBX 4 7 0 0
BITMAP
0100
17D3
0334
0AE4
0237
5DF4
9EC1
ENDCHAR
STARTCHAR uni1EA9.a
ENCODING -1
SWIDTH 492 0
DWIDTH 4 0
BBX 5 7 0 0
BITMAP
000820
01D730
033400
0AE400
023700
5DF400
9EC100
ENDCHAR
STARTCHAR uni1EAB.a
ENCODING -1
SWIDTH 492 0
DWIDTH 4 0
BBX 4 7 0 0
BITMAP
02B6
06FB
0323
0AE4
0237
5DF4
9EC1
ENDCHAR
STARTCHAR uni1EAD.a
ENCODING -1
SWIDTH 492 0
DWIDTH 4 0
BBX 4 7 0 -1
BITMAP
01E4
0636
0AE4
0237
5DF4
9EC1
0900
ENDCHAR
STARTCHAR uni1EAF.a
ENCODING -1
SWIDTH 492 0
DWIDTH 4 0
BBX 4 7 0 0
BITMAP
0024
0636
03D3
0AE4
0237
5DF4
9EC1
ENDCHAR
STARTCHAR uni1EB1.a
ENCODING -1
SWIDTH 492 0
DWIDTH 4 0
BBX 4 7 0 0
BITMAP
0050
0636
03D3
0AE4
0237
5DF4
9EC1
ENDCHAR
STARTCHAR uni1EB3.a
ENCODING -1
SWIDTH 492 0
DWIDTH 4 0
BBX 4 7 0 0
BITMAP
0092
0669
03D3
0AE4
0237
5DF4
9EC1
ENDCHAR
STARTCHAR uni1EB5.a
ENCODING -1
SWIDTH 492 0
DWIDTH 4 0
BBX 4 10 0 0
BITMAP
02B6
0569
0000
0617
04E4
0000
0AE4
0237
5DF4
9EC1
ENDCHAR
STARTCHAR uni1EB7.a
ENCODING -1
SWIDTH 492 0
DWIDTH 4 0
BBX 4 7 0 -1
BITMAP
0616
03D4
0AE4
0237
5DF4
9EC1
0900
ENDCHAR
STARTCHAR aogonek.a
ENCODING -1
SWIDTH 492 0
DWIDTH 4 0
BBX 4 6 0 -2
BITMAP
0AE4
0237
5CF4
9ED1
0240
04A0
ENDCHAR
STARTCHAR g.a
ENCODING -1
SWIDTH 477 0
DWIDTH 4 0
BBX 5 6 -1 -2
BITMAP
01CFF0
056650
02FC10
063000
08FD10
1DFA00
ENDCHAR
STARTCHAR gcircumflex.a
ENCODING -1
SWIDTH 477 0
DWIDTH 4 0
BBX 5 8 -1 -2
BITMAP
002E20
007450
01CFF0
056650
02FC10
063000
08FD10
1DFA00
ENDCHAR
STARTCHAR gbreve.a
ENCODING -1
SWIDTH 477 0
DWIDTH 4 0
BBX 5 8 -1 -2
BITMAP
006160
005D20
01CFF0
056650
02FC10
063000
08FD10
1DFA00
ENDCHAR
STARTCHAR gdotaccent.a
ENCODING -1
SWIDTH 477 0
DWIDTH 4 0
BBX 5 8 -1 -2
BITMAP
000900
000000
01CFF0
056650
02FC10
063000
08FD10
1DFA00
ENDCHAR
STARTCHAR uni0123.a
ENCODING -1
SWIDTH 477 0
DWIDTH 4 0
BBX 5 8 -1 -2
BITMAP
001C40
002A00
01CFF0
056650
02FC10
063000
08FD10
1DFA00
ENDCHAR
STARTCHAR gcaron.a
ENCODING -1
SWIDTH 477 0
DWIDTH 4 0
BBX 5 8 -1 -2
BITMAP
007460
004D10
01CFF0
056650
02FC10
063000
08FD10
1DFA00
ENDCHAR
STARTCHAR uni1E21.a
ENCODING -1
SWIDTH 477 0
DWIDTH 4 0
BBX 5 7 -1 -2
BITMAP
009F60
01CFF0
056650
02FC10
063000
08FD10
1DFA00
ENDCHAR
STARTCHAR uni00670303.a
ENCODING -1
SWIDTH 477 0
DWIDTH 4 0
BBX 5 10 -1 -2
BITMAP
001010
009980
007870
000000
01CFF0
056650
02FC10
063000
08FD10
1DFA00
ENDCHAR
STARTCHAR l.a
ENCODING -1
SWIDTH 238 0
DWIDTH 2 0
BBX 2 6 0 0
BITMAP
09
09
18
45
72
90
ENDCHAR
STARTCHAR lacute.a
ENCODING -1
SWIDTH 238 0
DWIDTH 2 0
BBX 3 7 0 0
BITMAP
0360
0900
0900
1800
4500
7200
9000
ENDCHAR
STARTCHAR lcaron.a
ENCODING -1
SWIDTH 242 0
DWIDTH 2 0
BBX 3 6 0 0
BITMAP
0960
0950
1800
4500
7200
9000
ENDCHAR
STARTCHAR ldot.a
ENCODING -1
SWIDTH 331 0
DWIDTH 3 0
BBX 3 6 0 0
BITMAP
0900
0900
1800
4590
7200
9000
ENDCHAR
STARTCHAR uni013C.a
ENCODING -1
SWIDTH 238 0
DWIDTH 2 0
BBX 3 8 -1 -2
BITMAP
0090
0090
0180
0450
0720
0900
0C00
7A00
ENDCHAR
STARTCHAR uni1E37.a
ENCODING -1
SWIDTH 238 0
DWIDTH 2 0
BBX 2 7 0 -1
BITMAP
09
09
18
45
72
90
90
ENDCHAR
STARTCHAR uni1E39.a
ENCODING -1
SWIDTH 238 0
DWIDTH 2 0
BBX 3 8 0 -1
BITMAP
2FD0
0900
0900
1800
4500
7200
9000
9000
ENDCHAR
STARTCHAR uni1E3B.a
ENCODING -1
SWIDTH 238 0
DWIDTH 2 0
BBX 3 8 -1 -2
BITMAP
0090
0090
0180
0450
0720
0900
0000
AF60
ENDCHAR
STARTCHAR lslash.a
ENCODING -1
SWIDTH 246 0
DWIDTH 2 0
BBX 3 6 0 0
BITMAP
0900
0B20
5E20
A700
7300
9000
ENDCHAR
STARTCHAR zero.pnum
ENCODING -1
SWIDTH 504 0
DWIDTH 4 0
BBX 4 5 0 0
BITMAP
07E7
391A
8109
9266
4EA0
ENDCHAR
STARTCHAR one.pnum
ENCODING -1
SWIDTH 340 0
DWIDTH 3 0
BBX 3 5 0 0
BITMAP
0750
3F20
0600
0700
1800
ENDCHAR
STARTCHAR two.pnum
ENCODING -1
SWIDTH 467 0
DWIDTH 4 0
BBX 5 5 -1 0
BITMAP
009E40
004360
000500
036000
1FFF10
ENDCHAR
STARTCHAR three.pnum
ENCODING -1
SWIDTH 461 0
DWIDTH 4 0
BBX 4 5 0 0
BITMAP
0AE5
0358
0BC1
6193
7EB1
ENDCHAR
STARTCHAR four.pnum
ENCODING -1
SWIDTH 485 0
DWIDTH 4 0
BBX 4 5 0 0
BITMAP
0078
0585
4572
CFF9
0090
ENDCHAR
STARTCHAR five.pnum
ENCODING -1
SWIDTH 461 0
DWIDTH 4 0
BBX 4 5 0 0
BITMAP
0CFA
2FD1
1175
5193
7E80
ENDCHAR
STARTCHAR six.pnum
ENCODING -1
SWIDTH 480 0
DWIDTH 4 0
BBX 4 5 0 0
BITMAP
06E7
3FE6
7446
8365
3EB0
ENDCHAR
STARTCHAR seven.pnum
ENCODING -1
SWIDTH 456 0
DWIDTH 4 0
BBX 4 5 0 0
BITMAP
3FFE
0054
0270
0810
1900
ENDCHAR
STARTCHAR eight.pnum
ENCODING -1
SWIDTH 480 0
DWIDTH 4 0
BBX 4 5 0 0
BITMAP
0BE7
0B99
8AC2
9146
4ED2
ENDCHAR
STARTCHAR nine.pnum
ENCODING -1
SWIDTH 480 0
DWIDTH 4 0
BBX 4 5 0 0
BITMAP
1BE4
5649
3EC8
3193
7E70
ENDCHAR
STARTCHAR zero.tnum
ENCODING -1
SWIDTH 480 0
DWIDTH 4 0
BBX 4 5 0 0
BITMAP
0AE4
5729
8018
9284
5E90
ENDCHAR
STARTCHAR one.tnum
ENCODING -1
SWIDTH 480 0
DWIDTH 4 0
BBX 3 5 0 0
BITMAP
03A0
0C80
0150
0620
BFF0
ENDCHAR
STARTCHAR two.tnum
ENCODING -1
SWIDTH 480 0
DWIDTH 4 0
BBX 5 5 -1 0
BITMAP
00AE30
013460
000600
036000
1FFF20
ENDCHAR
STARTCHAR three.tnum
ENCODING -1
SWIDTH 480 0
DWIDTH 4 0
BBX 4 6 0 -1
BITMAP
0AE4
0357
0CA0
0191
61A2
7E80
ENDCHAR
STARTCHAR four.tnum
ENCODING -1
SWIDTH 480 0
DWIDTH 4 0
BBX 4 6 0 -1
BITMAP
0086
03A4
1871
8190
FFF7
0080
ENDCHAR
STARTCHAR five.tnum
ENCODING -1
SWIDTH 480 0
DWIDTH 4 0
BBX 4 6 0 -1
BITMAP
0DF9
1700
4EC0
1183
51A1
8E70
ENDCHAR
STARTCHAR six.tnum
ENCODING -1
SWIDTH 480 0
DWIDTH 4 0
BBX 4 5 0 0
BITMAP
06E7
3FE6
7446
8365
3EB0
ENDCHAR
STARTCHAR seven.tnum
ENCODING -1
SWIDTH 480 0
DWIDTH 4 0
BBX 4 6 0 -1
BITMAP
3FFE
0045
0180
0720
0900
1500
ENDCHAR
STARTCHAR eight.tnum
ENCODING -1
SWIDTH 480 0
DWIDTH 4 0
BBX 4 5 0 0
BITMAP
0BE7
0B99
8AC2
9146
4ED2
ENDCHAR
STARTCHAR nine.tnum
ENCODING -1
SWIDTH 480 0
DWIDTH 4 0
BBX 4 6 0 -1
BITMAP
1CD2
7437
8357
3EC5
31A1
9E40
ENDCHAR
STARTCHAR zero.onum
ENCODING -1
SWIDTH 480 0
DWIDTH 4 0
BBX 4 5 0 0
BITMAP
0AE4
5729
8018
9284
5E90
ENDCHAR
STARTCHAR one.onum
ENCODING -1
SWIDTH 342 0
DWIDTH 3 0
BBX 3 5 0 0
BITMAP
0930
5F00
0600
0800
2700
ENDCHAR
STARTCHAR two.onum
ENCODING -1
SWIDTH 462 0
DWIDTH 4 0
BBX 5 5 -1 0
BITMAP
00AE20
013640
001600
036000
1FFF00
ENDCHAR
STARTCHAR three.onum
ENCODING -1
SWIDTH 480 0
DWIDTH 4 0
BBX 4 6 0 -1
BITMAP
0AE4
0357
0CA0
0191
61A2
7E80
ENDCHAR
STARTCHAR four.onum
ENCODING -1
SWIDTH 480 0
DWIDTH 4 0
BBX 4 6 0 -1
BITMAP
0086
03A4
1871
8190
FFF7
0080
ENDCHAR
STARTCHAR five.onum
ENCODING -1
SWIDTH 480 0
DWIDTH 4 0
BBX 4 6 0 -1
BITMAP
0DF9
1700
4EC0
1183
51A1
8E70
ENDCHAR
STARTCHAR six.onum
ENCODING -1
SWIDTH 480 0
DWIDTH 4 0
BBX 4 5 0 0
BITMAP
06E7
3FE6
7446
8365
3EB0
ENDCHAR
STARTCHAR seven.onum
ENCODING -1
SWIDTH 456 0
DWIDTH 4 0
BBX 4 6 0 -1
BITMAP
5FFC
0063
0270
0800
0900
2400
ENDCHAR
STARTCHAR eight.onum
ENCODING -1
SWIDTH 480 0
DWIDTH 4 0
BBX 4 5 0 0
BITMAP
0BE7
0B99
8AC2
9146
4ED2
ENDCHAR
STARTCHAR nine.onum
ENCODING -1
SWIDTH 480 0
DWIDTH 4 0
BBX 4 6 0 -1
BITMAP
1CD2
7437
8357
3EC5
31A1
9E40
ENDCHAR
STARTCHAR at.case
ENCODING -1
SWIDTH 802 0
DWIDTH 6 0
BBX 7 6 0 0
BITMAP
007ED500
08712A00
184D6520
34836800
1A9DE800
06EC1000
ENDCHAR
STARTCHAR period.sups
ENCODING -1
SWIDTH 170 0
DWIDTH 1 0
BBX 2 1 0 3
BITMAP
53
ENDCHAR
STARTCHAR comma.sups
ENCODING -1
SWIDTH 170 0
DWIDTH 1 0
BBX 2 2 0 2
BITMAP
44
41
ENDCHAR
STARTCHAR period.subs
ENCODING -1
SWIDTH 170 0
DWIDTH 1 0
BBX 2 1 -1 -1
BITMAP
35
ENDCHAR
STARTCHAR comma.subs
ENCODING -1
SWIDTH 170 0
DWIDTH 1 0
BBX 2 2 -1 -2
BITMAP
36
32
ENDCHAR
STARTCHAR zero.dnom
ENCODING -1
SWIDTH 357 0
DWIDTH 3 0
BBX 3 4 0 0
BITMAP
4E40
8270
8360
9C10
ENDCHAR
STARTCHAR one.dnom
ENCODING -1
SWIDTH 356 0
DWIDTH 3 0
BBX 2 4 0 -1
BITMAP
2C
07
07
03
ENDCHAR
STARTCHAR two.dnom
ENCODING -1
SWIDTH 353 0
DWIDTH 3 0
BBX 3 4 0 0
BITMAP
3E30
2330
0000
AF20
ENDCHAR
STARTCHAR three.dnom
ENCODING -1
SWIDTH 351 0
DWIDTH 3 0
BBX 3 4 0 0
BITMAP
3E30
1450
5E10
8E10
ENDCHAR
STARTCHAR four.dnom
ENCODING -1
SWIDTH 354 0
DWIDTH 3 0
BBX 3 3 0 0
BITMAP
0A20
9F60
0500
ENDCHAR
STARTCHAR five.dnom
ENCODING -1
SWIDTH 351 0
DWIDTH 3 0
BBX 3 3 0 0
BITMAP
3F80
AE20
9D10
ENDCHAR
STARTCHAR six.dnom
ENCODING -1
SWIDTH 353 0
DWIDTH 3 0
BBX 3 4 0 0
BITMAP
3D50
9210
BE20
8E20
ENDCHAR
STARTCHAR seven.dnom
ENCODING -1
SWIDTH 353 0
DWIDTH 3 0
BBX 3 4 0 -1
BITMAP
6FA0
0420
0600
3200
ENDCHAR
STARTCHAR eight.dnom
ENCODING -1
SWIDTH 353 0
DWIDTH 3 0
BBX 3 4 0 0
BITMAP
4E40
5230
6520
AD10
ENDCHAR
STARTCHAR nine.dnom
ENCODING -1
SWIDTH 353 0
DWIDTH 3 0
BBX 3 4 0 0
BITMAP
4E20
8460
8E40
BB00
ENDCHAR
STARTCHAR parenleft.dnom
ENCODING -1
SWIDTH 227 0
DWIDTH 2 0
BBX 2 4 0 0
BITMAP
15
71
70
60
ENDCHAR
STARTCHAR parenright.dnom
ENCODING -1
SWIDTH 226 0
DWIDTH 2 0
BBX 2 4 0 0
BITMAP
42
34
52
60
ENDCHAR
STARTCHAR period.dnom
ENCODING -1
SWIDTH 170 0
DWIDTH 1 0
BBX 1 1 0 0
BITMAP
70
ENDCHAR
STARTCHAR comma.dnom
ENCODING -1
SWIDTH 170 0
DWIDTH 1 0
BBX 2 2 -1 -1
BITMAP
08
13
ENDCHAR
STARTCHAR zero.numr
ENCODING -1
SWIDTH 357 0
DWIDTH 3 0
BBX 3 4 0 2
BITMAP
0BA0
5480
7290
3E50
ENDCHAR
STARTCHAR one.numr
ENCODING -1
SWIDTH 356 0
DWIDTH 3 0
BBX 2 4 1 1
BITMAP
86
43
60
40
ENDCHAR
STARTCHAR two.numr
ENCODING -1
SWIDTH 353 0
DWIDTH 3 0
BBX 3 4 0 2
BITMAP
0B90
0260
0000
4E80
ENDCHAR
STARTCHAR three.numr
ENCODING -1
SWIDTH 351 0
DWIDTH 3 0
BBX 3 4 0 2
BITMAP
0B80
0280
3B50
3E60
ENDCHAR
STARTCHAR four.numr
ENCODING -1
SWIDTH 354 0
DWIDTH 3 0
BBX 3 3 0 2
BITMAP
0480
3EC0
0230
ENDCHAR
STARTCHAR five.numr
ENCODING -1
SWIDTH 351 0
DWIDTH 3 0
BBX 3 3 0 2
BITMAP
0CE0
3F70
3F60
ENDCHAR
STARTCHAR six.numr
ENCODING -1
SWIDTH 353 0
DWIDTH 3 0
BBX 3 4 0 2
BITMAP
0AB0
4710
6E80
2E60
ENDCHAR
STARTCHAR seven.numr
ENCODING -1
SWIDTH 353 0
DWIDTH 3 0
BBX 3 4 1 1
BITMAP
FF10
1500
6000
5000
ENDCHAR
STARTCHAR eight.numr
ENCODING -1
SWIDTH 353 0
DWIDTH 3 0
BBX 3 4 0 2
BITMAP
0CA0
0550
5260
5E50
ENDCHAR
STARTCHAR nine.numr
ENCODING -1
SWIDTH 353 0
DWIDTH 3 0
BBX 3 4 0 2
BITMAP
0C80
4590
2EA0
5E30
ENDCHAR
STARTCHAR parenleft.numr
ENCODING -1
SWIDTH 227 0
DWIDTH 2 0
BBX 3 4 0 2
BITMAP
0610
1600
4300
2400
ENDCHAR
STARTCHAR parenright.numr
ENCODING -1
SWIDTH 226 0
DWIDTH 2 0
BBX 2 4 0 2
BITMAP
06
07
07
51
ENDCHAR
STARTCHAR period.numr
ENCODING -1
SWIDTH 170 0
DWIDTH 1 0
BBX 1 1 0 2
BITMAP
70
ENDCHAR
STARTCHAR comma.numr
ENCODING -1
SWIDTH 170 0
DWIDTH 1 0
BBX 2 2 0 1
BITMAP
71
50
ENDCHAR
STARTCHAR ordfeminine.a
ENCODING -1
SWIDTH 333 0
DWIDTH 3 0
BBX 3 3 0 3
BITMAP
1D60
5E50
8910
ENDCHAR
STARTCHAR q.sups
ENCODING -1
SWIDTH 356 0
DWIDTH 3 0
BBX 3 4 0 2
BITMAP
1D60
7380
5C70
0120
ENDCHAR
STARTCHAR egrave.sups
ENCODING -1
SWIDTH 323 0
DWIDTH 3 0
BBX 3 5 0 3
BITMAP
0100
0330
2D70
7FB0
5E20
ENDCHAR
STARTCHAR eacute.sups
ENCODING -1
SWIDTH 323 0
DWIDTH 3 0
BBX 3 5 0 3
BITMAP
0010
0240
2D70
7FB0
5E20
ENDCHAR
STARTCHAR a.supa
ENCODING -1
SWIDTH 333 0
DWIDTH 3 0
BBX 3 3 0 3
BITMAP
0C80
3E70
6A20
ENDCHAR
STARTCHAR g.supa
ENCODING -1
SWIDTH 324 0
DWIDTH 3 0
BBX 3 4 0 2
BITMAP
2EE0
3F60
2110
BE30
ENDCHAR
STARTCHAR l.supa
ENCODING -1
SWIDTH 164 0
DWIDTH 1 0
BBX 2 4 0 3
BITMAP
07
16
43
60
ENDCHAR
STARTCHAR slash.frac
ENCODING -1
SWIDTH 84 0
DWIDTH 1 0
BBX 5 5 -2 0
BITMAP
000330
001500
006000
061000
420000
ENDCHAR
STARTCHAR uni0300.cap
ENCODING -1
SWIDTH 0 0
DWIDTH 0 0
BBX 2 1 0 6
BITMAP
53
ENDCHAR
STARTCHAR uni0301.cap
ENCODING -1
SWIDTH 0 0
DWIDTH 0 0
BBX 3 1 0 6
BITMAP
2710
ENDCHAR
STARTCHAR uni0302.cap
ENCODING -1
SWIDTH 0 0
DWIDTH 0 0
BBX 3 2 0 5
BITMAP
7B00
7510
ENDCHAR
STARTCHAR uni0303.cap
ENCODING -1
SWIDTH 0 0
DWIDTH 0 0
BBX 4 2 -1 6
BITMAP
1E47
43D3
ENDCHAR
STARTCHAR uni0304.cap
ENCODING -1
SWIDTH 0 0
DWIDTH 0 0
BBX 3 1 0 6
BITMAP
FF10
ENDCHAR
STARTCHAR uni0306.cap
ENCODING -1
SWIDTH 0 0
DWIDTH 0 0
BBX 3 2 0 5
BITMAP
5320
9A00
ENDCHAR
STARTCHAR uni0307.cap
ENCODING -1
SWIDTH 0 0
DWIDTH 0 0
BBX 2 1 0 6
BITMAP
46
ENDCHAR
STARTCHAR uni0308.cap
ENCODING -1
SWIDTH 0 0
DWIDTH 0 0
BBX 3 1 0 6
BITMAP
8610
ENDCHAR
STARTCHAR uni0309.cap
ENCODING -1
SWIDTH 0 0
DWIDTH 0 0
BBX 2 2 0 5
BITMAP
66
26
ENDCHAR
STARTCHAR uni030A.cap
ENCODING -1
SWIDTH 0 0
DWIDTH 0 0
BBX 2 2 0 5
BITMAP
7B
7A
ENDCHAR
STARTCHAR uni030B.cap
ENCODING -1
SWIDTH 0 0
DWIDTH 0 0
BBX 3 2 0 5
BITMAP
4460
0200
ENDCHAR
STARTCHAR uni030C.cap
ENCODING -1
SWIDTH 0 0
DWIDTH 0 0
BBX 3 2 0 5
BITMAP
6520
9A00
ENDCHAR
STARTCHAR uni030F.cap
ENCODING -1
SWIDTH 0 0
DWIDTH 0 0
BBX 3 2 -1 5
BITMAP
3570
0020
ENDCHAR
STARTCHAR uni0327.cap
ENCODING -1
SWIDTH 0 0
DWIDTH 0 0
BBX 3 2 -2 -2
BITMAP
0510
1E30
ENDCHAR
STARTCHAR uni0328.cap
ENCODING -1
SWIDTH 0 0
DWIDTH 0 0
BBX 2 3 -1 -2
BITMAP
11
80
B3
ENDCHAR
STARTCHAR uni03080304
ENCODING -1
SWIDTH 0 0
DWIDTH 0 0
BBX 3 2 0 5
BITMAP
CF40
7700
ENDCHAR
STARTCHAR uni03080304.cap
ENCODING -1
SWIDTH 0 0
DWIDTH 0 0
BBX 3 2 0 6
BITMAP
BF40
7610
ENDCHAR
STARTCHAR uni03080301
ENCODING -1
SWIDTH 0 0
DWIDTH 0 0
BBX 2 2 0 5
BITMAP
05
78
ENDCHAR
STARTCHAR uni03080301.cap
ENCODING -1
SWIDTH 0 0
DWIDTH 0 0
BBX 3 2 0 6
BITMAP
0500
7810
ENDCHAR
STARTCHAR uni0308030C
ENCODING -1
SWIDTH 0 0
DWIDTH 0 0
BBX 3 2 0 5
BITMAP
4320
DF00
ENDCHAR
STARTCHAR uni0308030C.cap
ENCODING -1
SWIDTH 0 0
DWIDTH 0 0
BBX 3 2 0 6
BITMAP
4320
CF10
ENDCHAR
STARTCHAR uni03080300
ENCODING -1
SWIDTH 0 0
DWIDTH 0 0
BBX 2 2 0 5
BITMAP
31
79
ENDCHAR
STARTCHAR uni03080300.cap
ENCODING -1
SWIDTH 0 0
DWIDTH 0 0
BBX 3 2 0 6
BITMAP
4200
7810
ENDCHAR
STARTCHAR uni03020301
ENCODING -1
SWIDTH 0 0
DWIDTH 0 0
BBX 3 3 0 4
BITMAP
0010
8A60
5400
ENDCHAR
STARTCHAR uni03020301.cap
ENCODING -1
SWIDTH 0 0
DWIDTH 0 0
BBX 3 2 0 5
BITMAP
7B60
4400
ENDCHAR
STARTCHAR uni03020300
ENCODING -1
SWIDTH 0 0
DWIDTH 0 0
BBX 3 3 -1 4
BITMAP
1000
5990
0540
ENDCHAR
STARTCHAR uni03020300.cap
ENCODING -1
SWIDTH 0 0
DWIDTH 0 0
BBX 3 2 -1 5
BITMAP
39A0
0440
ENDCHAR
STARTCHAR uni03020309
ENCODING -1
SWIDTH 0 0
DWIDTH 0 0
BBX 3 3 0 4
BITMAP
0280
8A70
5400
ENDCHAR
STARTCHAR uni03020309.cap
ENCODING -1
SWIDTH 0 0
DWIDTH 0 0
BBX 3 3 0 5
BITMAP
0190
7B70
4400
ENDCHAR
STARTCHAR uni03020303
ENCODING -1
SWIDTH 0 0
DWIDTH 0 0
BBX 3 3 0 4
BITMAP
A640
EF10
5400
ENDCHAR
STARTCHAR uni03020303.cap
ENCODING -1
SWIDTH 0 0
DWIDTH 0 0
BBX 3 3 0 5
BITMAP
9650
DF30
4400
ENDCHAR
STARTCHAR uni03060301
ENCODING -1
SWIDTH 0 0
DWIDTH 0 0
BBX 4 3 -1 4
BITMAP
0060
1663
0B90
ENDCHAR
STARTCHAR uni03060301.cap
ENCODING -1
SWIDTH 0 0
DWIDTH 0 0
BBX 3 3 0 5
BITMAP
0500
6620
9A00
ENDCHAR
STARTCHAR uni03060300
ENCODING -1
SWIDTH 0 0
DWIDTH 0 0
BBX 4 3 -1 4
BITMAP
0410
1663
0B90
ENDCHAR
STARTCHAR uni03060300.cap
ENCODING -1
SWIDTH 0 0
DWIDTH 0 0
BBX 3 3 0 5
BITMAP
3200
6620
9A00
ENDCHAR
STARTCHAR uni03060309
ENCODING -1
SWIDTH 0 0
DWIDTH 0 0
BBX 4 3 -1 4
BITMAP
0380
16B3
0B90
ENDCHAR
STARTCHAR uni03060309.cap
ENCODING -1
SWIDTH 0 0
DWIDTH 0 0
BBX 3 3 0 5
BITMAP
2900
6920
9A00
ENDCHAR
STARTCHAR uni03060303
ENCODING -1
SWIDTH 0 0
DWIDTH 0 0
BBX 4 5 -1 5
BITMAP
0954
07C1
0000
1662
0BA0
ENDCHAR
STARTCHAR uni03060303.cap
ENCODING -1
SWIDTH 0 0
DWIDTH 0 0
BBX 3 5 0 6
BITMAP
9650
6B30
0000
7530
AB00
ENDCHAR
STARTCHAR uni030C.a
ENCODING -1
SWIDTH 0 0
DWIDTH 0 0
BBX 1 2 0 4
BITMAP
60
50
ENDCHAR
STARTCHAR uni0326.a
ENCODING -1
SWIDTH 0 0
DWIDTH 0 0
BBX 2 2 0 4
BITMAP
6A
93
ENDCHAR
STARTCHAR space.frac
ENCODING -1
SWIDTH 132 0
DWIDTH 1 0
BBX 1 1 0 0
BITMAP
00
ENDCHAR
STARTCHAR nbspace.frac
ENCODING -1
SWIDTH 132 0
DWIDTH 1 0
BBX 1 1 0 0
BITMAP
00
ENDCHAR
STARTCHAR uni03020306
ENCODING -1
SWIDTH 0 0
DWIDTH 0 0
BBX 3 3 0 4
BITMAP
3210
FF00
4400
ENDCHAR
STARTCHAR uni03020306.cap
ENCODING -1
SWIDTH 0 0
DWIDTH 0 0
BBX 3 3 0 5
BITMAP
3120
DF10
4400
ENDCHAR
STARTCHAR zero.0
ENCODING -1
SWIDTH 480 0
DWIDTH 4 0
BBX 4 5 0 0
BITMAP
08E5
4829
8568
9184
4E90
ENDCHAR
STARTCHAR zero.0s
ENCODING -1
SWIDTH 480 0
DWIDTH 4 0
BBX 4 5 0 0
BITMAP
08E5
4919
8228
9194
4E90
ENDCHAR
STARTCHAR zero.0p
ENCODING -1
SWIDTH 504 0
DWIDTH 4 0
BBX 4 5 0 0
BITMAP
07E7
391A
8479
9266
4EA0
ENDCHAR
STARTCHAR zero.0ps
ENCODING -1
SWIDTH 504 0
DWIDTH 4 0
BBX 4 5 0 0
BITMAP
07E7
3A1A
8128
9276
4EA0
ENDCHAR
STARTCHAR uni03040301
ENCODING -1
SWIDTH 0 0
DWIDTH 0 0
BBX 2 3 0 4
BITMAP
05
02
FF
ENDCHAR
STARTCHAR uni03040301.cap
ENCODING -1
SWIDTH 0 0
DWIDTH 0 0
BBX 3 2 0 6
BITMAP
0500
FF10
ENDCHAR
ENDFONT
